<?xml version="1.0" encoding="utf-8"?>
<!-- Generator: Adobe Illustrator 16.0.0, SVG Export Plug-In . SVG Version: 6.00 Build 0)  -->
<!DOCTYPE svg PUBLIC "-//W3C//DTD SVG 1.1//EN" "http://www.w3.org/Graphics/SVG/1.1/DTD/svg11.dtd">
<svg version="1.1" id="Calque_1" xmlns="http://www.w3.org/2000/svg" xmlns:xlink="http://www.w3.org/1999/xlink" x="0px" y="0px"
	 width="200px" height="48px" viewBox="0 0 200 48" enable-background="new 0 0 200 48" xml:space="preserve">
<g>
	<rect x="3.39" y="3.406" fill="none" width="192.61" height="21.305"/>
	<path fill="#565656" d="M6.14,24.078V0.921h3.126V23.76h8.192v0.318H6.14z"/>
	<path fill="#565656" d="M29.965,23.789v0.289h-8.742V3.411h8.742V3.7h-5.963v6.542h5.963v0.289h-5.963v13.258H29.965z"/>
	<path fill="#565656" d="M40.128,11.921c1.563,1.245,3.705,2.808,3.705,6.166c0,3.242-2.924,5.962-6.195,5.962
		c-3.3,0-4.95-2.981-4.95-2.981h0.348c0,0,1.65,2.692,4.602,2.692c1.795,0,3.619-1.91,3.619-4.226c0-3.184-2.171-4.776-3.416-5.703
		c-3.068-2.287-4.486-3.908-4.486-6.021c0-2.519,1.794-4.516,4.458-4.544c2.837-0.058,3.995,2.923,3.995,2.923h-0.405
		c0,0-1.1-2.634-3.561-2.634c-1.65,0-2.576,1.273-2.576,2.663C35.265,7.695,36.596,9.142,40.128,11.921z"/>
	<path fill="#565656" d="M63.723,23.817c1.939,0,3.821-5.007,3.821-11.317c0-0.666,0-1.303-0.029-1.882h-3.937v-0.347h7.526
		c0.087,0.724,0.116,1.447,0.116,2.229c0,6.542-3.387,11.752-7.497,11.752c-4.14,0-7.555-5.21-7.555-11.752
		c0-6.6,3.416-11.839,7.555-11.839c2.2,0,4.342,1.592,5.76,4.11h-0.348c-1.881-2.865-3.502-3.531-4.573-3.531
		c-2.547,0-4.805,4.11-4.805,11.26C59.757,18.81,61.696,23.817,63.723,23.817z"/>
	<path fill="#565656" d="M81.875,3.208c3.705,0,6.745,4.718,6.745,10.537c0,5.818-3.04,10.507-6.745,10.507
		s-6.773-4.689-6.773-10.507C75.102,7.926,78.17,3.208,81.875,3.208z M81.875,23.876c1.766,0,3.358-4.516,3.358-10.131
		c0-5.645-1.592-10.189-3.358-10.189c-1.823,0-3.444,4.544-3.444,10.189C78.431,19.36,80.052,23.876,81.875,23.876z"/>
	<path fill="#565656" d="M103.066,18.318c0,1.708-0.694,5.79-4.92,5.79c-4.747,0-5.471-4.197-5.471-5.761V3.411h2.866v14.907
		c0,2.577,0.55,5.355,3.068,5.355c2.664,0,4.111-2.605,4.111-5.355V3.411h0.347V18.318z"/>
	<path fill="#565656" d="M119.598,24.078h-2.779l-5.586-13.315h-0.753v13.315h-2.778V3.411h4.921c1.968,0,3.56,1.679,3.56,3.705
		c0,1.708-1.36,3.04-2.345,3.329L119.598,24.078z M110.479,10.502h0.608c1.447,0,2.199-1.447,2.199-3.387
		c0-2.113-0.983-3.416-2.199-3.416h-0.608V10.502z"/>
	<path fill="#565656" d="M126.259,3.411L129.616,18l3.242-14.589h2.865v20.667h-2.865V4.945l-4.4,19.741l-4.747-19.972v19.365
		h-0.347V3.411H126.259z"/>
	<path fill="#565656" d="M139.172,24.078l4.979-21.275l5.355,21.275h-2.808l-1.911-7.642h-3.474l-1.794,7.642H139.172z
		 M141.4,16.089h3.3l-1.707-6.802L141.4,16.089z"/>
	<path fill="#565656" d="M153.474,5.813v18.265h-0.347V3.411h2.431l7.439,14.242V3.411h0.318v21.043L153.474,5.813z"/>
	<path fill="#565656" d="M171.597,24.078h-3.357V3.411h3.328c5.442,0,8.452,5.182,8.452,10.334
		C180.02,18.955,176.749,24.078,171.597,24.078z M176.951,13.745c0-5.413-2.286-9.871-5.934-10.044v20.089
		C174.694,23.789,176.951,18.665,176.951,13.745z"/>
	<path fill="#565656" d="M190.126,11.921c1.562,1.245,3.705,2.808,3.705,6.166c0,3.242-2.924,5.962-6.194,5.962
		c-3.3,0-4.95-2.981-4.95-2.981h0.348c0,0,1.649,2.692,4.603,2.692c1.794,0,3.618-1.91,3.618-4.226c0-3.184-2.171-4.776-3.416-5.703
		c-3.068-2.287-4.486-3.908-4.486-6.021c0-2.519,1.795-4.516,4.458-4.544c2.836-0.058,3.994,2.923,3.994,2.923h-0.405
		c0,0-1.1-2.634-3.561-2.634c-1.649,0-2.576,1.273-2.576,2.663C185.263,7.695,186.595,9.142,190.126,11.921z"/>
</g>
<g>
	<rect x="69.693" y="24.01" fill="none" width="59.596" height="22.656"/>
	<path fill="#565656" d="M70.446,44.681l3.32-14.188l3.571,14.188h-1.872l-1.274-5.096h-2.316l-1.197,5.096H70.446z M74.191,29.953
		l-2.432-2.355h1.872l0.888,2.355H74.191z M71.933,39.354h2.2l-1.139-4.536L71.933,39.354z"/>
	<path fill="#565656" d="M85.636,44.681V29.238h2.085v15.23h5.462v0.212H85.636z"/>
	<path fill="#565656" d="M97.545,44.681h-1.853V30.898h1.853V44.681z"/>
	<path fill="#565656" d="M106.848,44.487v0.193h-5.829V30.898h5.829v0.193h-3.976v4.362h3.976v0.193h-3.976v8.84H106.848z
		 M104.436,29.779l-2.433-2.354h1.872l0.889,2.354H104.436z"/>
	<path fill="#565656" d="M113.893,44.507c1.158,0,2.239-2.992,2.239-6.736c0-0.367,0-0.753-0.02-1.101h-2.335v-0.192h4.517
		c0.058,0.424,0.077,0.849,0.077,1.293c0,3.88-2.027,6.987-4.479,6.987c-2.471,0-4.517-3.107-4.517-6.987
		c0-3.899,2.046-7.026,4.517-7.026c1.312,0,2.567,0.946,3.417,2.451h-0.213c-1.1-1.698-2.065-2.104-2.702-2.104
		c-1.524,0-2.837,2.451-2.837,6.679C111.558,41.515,112.677,44.507,113.893,44.507z"/>
	<path fill="#565656" d="M127.134,44.487v0.193h-5.829V30.898h5.829v0.193h-3.977v4.362h3.977v0.193h-3.977v8.84H127.134z"/>
</g>
<line fill="none" stroke="#565656" stroke-miterlimit="10" x1="6.123" y1="38.303" x2="61.775" y2="38.303"/>
<line fill="none" stroke="#565656" stroke-miterlimit="10" x1="137.951" y1="38.302" x2="193.603" y2="38.302"/>
<g>
</g>
<g>
</g>
<g>
</g>
<g>
</g>
<g>
</g>
<g>
</g>
</svg>
