<?xml version="1.0" encoding="UTF-8" standalone="no"?>
<!-- Created with Inkscape (http://www.inkscape.org/) -->

<svg
   xmlns:dc="http://purl.org/dc/elements/1.1/"
   xmlns:cc="http://creativecommons.org/ns#"
   xmlns:rdf="http://www.w3.org/1999/02/22-rdf-syntax-ns#"
   xmlns:svg="http://www.w3.org/2000/svg"
   xmlns="http://www.w3.org/2000/svg"
   xmlns:sodipodi="http://sodipodi.sourceforge.net/DTD/sodipodi-0.dtd"
   xmlns:inkscape="http://www.inkscape.org/namespaces/inkscape"
   width="210mm"
   height="297mm"
   id="svg3050"
   version="1.1"
   inkscape:version="0.48.1 "
   sodipodi:docname="fgth.svg">
  <defs
     id="defs3052" />
  <sodipodi:namedview
     id="base"
     pagecolor="#ffffff"
     bordercolor="#666666"
     borderopacity="1.0"
     inkscape:pageopacity="0.0"
     inkscape:pageshadow="2"
     inkscape:zoom="1"
     inkscape:cx="249.56039"
     inkscape:cy="400.73667"
     inkscape:document-units="px"
     inkscape:current-layer="layer1"
     showgrid="false"
     inkscape:window-width="1366"
     inkscape:window-height="718"
     inkscape:window-x="-8"
     inkscape:window-y="-8"
     inkscape:window-maximized="1" />
  <metadata
     id="metadata3055">
    <rdf:RDF>
      <cc:Work
         rdf:about="">
        <dc:format>image/svg+xml</dc:format>
        <dc:type
           rdf:resource="http://purl.org/dc/dcmitype/StillImage" />
        <dc:title></dc:title>
      </cc:Work>
    </rdf:RDF>
  </metadata>
  <g
     inkscape:label="Calque 1"
     inkscape:groupmode="layer"
     id="layer1">
    <g
       id="g3069"
       transform="matrix(0.53030127,0,0,0.53030127,212.30611,221.46133)">
      <path
         style="fill:#d05e93"
         d="m 253.06726,1343.4879 c -1.40383,-2.6231 -1.42386,-50.3015 -0.0233,-55.3446 1.34996,-4.8608 5.22152,-9.3658 10.2563,-11.9343 8.63156,-4.4035 20.31222,-0.4101 24.57854,8.4029 1.82082,3.7614 2.12115,6.1833 2.12115,17.1059 0,16.4059 -1.78441,20.5045 -10.95121,25.1535 -2.76547,1.4026 -4.89835,1.628 -10.73447,1.1347 -8.41077,-0.711 -8.10865,-1.0766 -8.55854,10.3562 -0.24528,6.2331 -0.36594,6.5127 -2.93852,6.8099 -1.86608,0.2156 -3.00763,-0.2971 -3.75,-1.6842 z m 25.61468,-26.6076 3.48194,-3.482 -0.33194,-12.4405 c -0.30779,-11.5354 -0.5073,-12.627 -2.74187,-15.0028 -4.86424,-5.1716 -13.90578,-4.042 -17.22107,2.1515 -1.5126,2.8258 -1.92832,20.7534 -0.59216,25.5367 0.96085,3.4398 6.11023,6.7103 10.57316,6.7153 2.49484,0 4.23884,-0.8851 6.83194,-3.4782 z m -283.62225,19.5934 c -0.78673,-1.47 -0.46388,-2.6333 1.45691,-5.25 3.31818,-4.5202 5.4834,-9.3008 5.4834,-12.1069 0,-2.7651 2.5998,-6.7546 4.40172,-6.7546 0.70857,0 2.07656,0.871 3.03997,1.9356 1.52364,1.6836 1.60889,2.6013 0.65483,7.0499 -2.66063,12.4061 -11.65195,21.4507 -15.03683,15.126 z m -322.63741,-9.5299 c -4.89661,-2.1322 -10.5799,-7.7015 -12.83907,-12.5816 -1.90363,-4.1121 -2.11123,-6.6702 -2.4083,-29.6754 -0.35608,-27.5749 -0.0224,-29.6745 4.63051,-29.1345 3.67309,0.4262 4.06672,3.3675 4.13695,30.912 0.0556,21.805 0.13782,22.7211 2.33143,25.9762 3.49267,5.1828 8.23847,7.9217 13.7262,7.9217 5.48773,0 10.23353,-2.7389 13.7262,-7.9217 2.21542,-3.2874 2.2738,-4.0201 2.2738,-28.5351 0,-27.1837 0.33281,-29.0562 5.04568,-28.3882 2.11488,0.2998 2.54382,1.0654 3.27499,5.845 0.46275,3.025 0.64877,15.2282 0.41338,27.1181 -0.39307,19.8551 -0.61074,21.9957 -2.66892,26.2474 -2.69642,5.57 -8.63353,10.889 -13.92357,12.4739 -5.13061,1.5372 -13.88962,1.4097 -17.71928,-0.2578 z m 106.07772,0.011 c -1.65,-0.7312 -4.26032,-2.5133 -5.80071,-3.9601 -4.67596,-4.3918 -5.69929,-8.3032 -5.69929,-21.7842 0,-14.4034 1.68051,-19.2845 8.10285,-23.5346 13.45295,-8.9027 29.86804,1.117 29.89157,18.2457 0.01,7.0182 -0.72321,7.3698 -15.99442,7.673 l -13.5,0.2681 -0.30678,3.6899 c -0.86501,10.4041 10.26858,16.379 19.21164,10.3101 2.02618,-1.375 4.24897,-2.5 4.93955,-2.5 1.75226,0 3.65559,2.0894 3.65559,4.0129 0,2.0804 -4.69755,6.5567 -8.3151,7.9235 -3.85095,1.455 -12.5423,1.2701 -16.1849,-0.3443 z m 17.33911,-34.4913 c 1.17846,-8.3378 -11.57939,-13.2913 -17.60505,-6.8355 -2.3384,2.5053 -3.77272,7.0541 -2.74741,8.7131 0.43326,0.701 4.13721,0.9899 10.34414,0.8068 9.35062,-0.2758 9.68038,-0.3643 10.00832,-2.6844 z m 56.33978,34.6148 C -149.60329,1324.9303 -166,1281.397 -166,1278.8127 c 0,-1.7575 0.69851,-2.5877 2.57322,-3.0582 1.41526,-0.3552 3.01574,-0.2033 3.55661,0.3375 0.54088,0.5409 3.65614,7.8862 6.92281,16.3228 5.80321,14.9877 7.29969,17.9284 8.50837,16.7197 0.32689,-0.3269 3.2402,-7.4276 6.47403,-15.7795 3.23382,-8.3518 6.42198,-15.8386 7.08481,-16.6372 0.66283,-0.7987 2.09856,-1.3179 3.19052,-1.1539 4.54744,0.6832 4.17462,2.6321 -5.21772,27.2748 -5.01439,13.1563 -9.67408,24.2743 -10.35486,24.7067 -1.80742,1.148 -3.34933,0.9898 -4.5589,-0.4676 z m 57.97403,-2.1942 c -1.67985,-1.9133 -3.31925,-4.9508 -3.64312,-6.75 -0.32387,-1.7993 -0.45856,-16.5464 -0.29932,-32.7714 l 0.28952,-29.5 2.44397,-0.345 c 4.79227,-0.6764 5.05603,0.9722 5.05603,31.6019 0,28.9828 0.16985,30.413 4.07569,34.3188 2.21106,2.211 2.43868,4.0099 0.72431,5.7243 -2.17207,2.1721 -5.5121,1.2919 -8.64708,-2.2786 z m 24.98887,1.8791 c -1.29702,-0.916 -3.19964,-3.5184 -4.22804,-5.783 -1.68955,-3.7205 -1.87194,-6.9666 -1.89179,-33.6675 -0.0161,-21.6754 0.29782,-29.8698 1.17804,-30.75 1.02235,-1.0223 5.38818,-1.7135 6.00048,-0.95 0.11026,0.1375 0.44776,14.0588 0.75,30.9363 l 0.54952,30.6863 2.83369,2.9558 c 5.27488,5.5021 0.9839,10.9338 -5.1919,6.5721 z m 27.06193,-0.5287 c -9.26294,-4.585 -12.44116,-13.9875 -10.56804,-31.2644 0.85941,-7.9269 1.48582,-10.0779 3.82981,-13.151 5.08449,-6.6661 14.50261,-9.1679 22.28003,-5.9183 4.7503,1.9848 7.02196,4.0893 9.36089,8.6721 2.27597,4.4593 2.65194,15.9155 0.57879,17.6361 -0.7568,0.6281 -6.80449,1.2105 -14.25,1.3724 l -12.9352,0.2808 -0.30657,4.7934 c -0.27658,4.3247 0.0315,5.1315 3.15,8.25 4.45467,4.4547 10.42107,4.8192 15.65657,0.9566 4.12228,-3.0413 6.56937,-3.1732 8.03589,-0.4329 2.55142,4.7673 -6.13918,10.8704 -15.53589,10.9101 -3.12269,0.013 -6.61309,-0.7772 -9.29628,-2.1054 z m 18.60485,-34.0405 c 0.47272,-4.0882 -4.2577,-8.8139 -9.53065,-9.521 -3.84459,-0.5155 -4.53749,-0.2507 -7.75,2.9618 -3.30824,3.3082 -4.56658,7.3559 -2.82746,9.095 0.38525,0.3853 4.99775,0.5728 10.25,0.4167 9.52144,-0.283 9.55045,-0.2917 9.85811,-2.9525 z m 71.93898,34.0994 c -2.06385,-1.0896 -4.98885,-3.848 -6.5,-6.13 l -2.74755,-4.1489 0,-19.4647 c 0,-17.4498 0.18115,-19.5792 1.75,-20.5708 1.27464,-0.8056 2.22536,-0.807 3.5,0 1.53395,0.9651 1.81173,3.4132 2.25,19.8293 l 0.5,18.7282 3.26578,2.9156 c 5.32207,4.7514 13.03247,3.635 16.47648,-2.3857 0.82111,-1.4354 1.43132,-8.4107 1.75774,-20.0926 0.43647,-15.6205 0.72234,-18.0338 2.25,-18.9949 1.27459,-0.8019 2.22541,-0.8005 3.5,0.01 1.56586,0.9898 1.75,3.0937 1.75,19.9949 0,22.0606 -0.74443,24.6852 -8.37372,29.5236 -5.61446,3.5606 -13.52605,3.8854 -19.37873,0.7958 z M 173.5,1326.9617 c -3.9539,-1.7426 -8.449,-6.3163 -10.14,-10.3174 -0.89684,-2.122 -1.36,-7.3782 -1.36,-15.4343 0,-10.4051 0.31449,-12.866 2.12115,-16.5981 4.26632,-8.813 15.94698,-12.8064 24.57854,-8.4029 7.43488,3.793 11.28209,10.5073 11.29473,19.7121 0.01,7.0182 -0.72321,7.3698 -15.99442,7.673 l -13.5,0.2681 -0.30678,3.6899 c -0.86501,10.4041 10.26858,16.379 19.21164,10.3101 2.02618,-1.375 4.24897,-2.5 4.93955,-2.5 1.75226,0 3.65559,2.0894 3.65559,4.0129 0,2.0804 -4.69755,6.5567 -8.3151,7.9235 -3.84345,1.4521 -12.53621,1.2712 -16.1849,-0.3369 z m 17.5,-34.9631 c 0,-3.5815 -3.46499,-8.0144 -7.18799,-9.1961 -3.13503,-0.995 -8.29991,0.3844 -10.57795,2.825 -2.31802,2.4835 -3.77524,7.05 -2.76919,8.6779 0.38799,0.6277 4.6891,1.0568 10.59415,1.0568 l 9.94098,0 0,-3.3636 z m 24.33068,34.4267 c -6.16805,-2.8006 -8.32283,-7.9266 -4.24859,-10.107 1.71599,-0.9184 2.73647,-0.6608 5.80375,1.4648 6.94297,4.8115 17.13617,2.2818 17.09885,-4.2435 -0.0237,-4.1363 -1.07482,-5.0866 -11.1166,-10.0499 C 212.35455,1298.2933 209,1294.6341 209,1288.3622 c 0,-7.3717 7.23078,-13.9951 15.28212,-13.9984 9.81984,0 19.12089,8.1954 14.51788,12.7984 -1.81589,1.8159 -3.1702,1.4819 -7.3,-1.8 -4.66997,-3.7112 -8.69731,-3.8936 -12.04545,-0.5455 -1.35,1.35 -2.45455,2.8644 -2.45455,3.3652 0,2.4544 4.6538,6.2634 10.206,8.3533 3.66017,1.3778 7.93849,3.9908 10.48797,6.4056 4.04523,3.8315 4.3058,4.4069 4.30229,9.5 -0.003,3.6712 -0.65487,6.4894 -2.02066,8.7295 -4.02389,6.6 -16.03965,9.1621 -24.64492,5.255 z m 157.98314,-0.013 c -5.32895,-3.2496 -5.76975,-4.9636 -6.31382,-24.5501 l -0.5,-18 -4.39842,-0.5 c -7.73126,-0.8789 -8.39603,-7.1578 -0.82642,-7.8058 4.4984,-0.3851 5.50799,-1.6182 5.90609,-7.2138 0.28285,-3.9758 0.60997,-4.5143 2.90435,-4.781 3.39559,-0.3947 4.70724,1.3609 5.09565,6.8202 l 0.31875,4.4804 6.5,0.2558 c 9.46797,0.3726 11,0.8796 11,3.6408 0,3.5742 -1.89274,4.4797 -10.04468,4.8054 l -7.45532,0.298 -0.27546,16.3931 c -0.23864,14.2021 -0.0509,16.6413 1.40499,18.25 2.08309,2.3018 6.21341,2.3763 10.78851,0.1946 4.08544,-1.9482 6.58196,-0.71 6.58196,3.2644 0,5.452 -14.07567,8.4784 -20.68618,4.4477 z m -654.22954,-0.4483 c -0.92082,-1.1095 -1.15866,-6.2597 -0.91441,-19.8005 0.37104,-20.5688 0.87082,-22.2929 8.17295,-28.195 3.44735,-2.7864 4.53545,-3.106 10.57303,-3.106 8.3954,0 13.72657,3.0642 16.963,9.7497 1.91525,3.9564 2.12115,6.0904 2.12115,21.9842 0,9.6814 -0.27314,18.3143 -0.60699,19.1843 -0.35251,0.9183 -1.77501,1.5815 -3.39301,1.5815 -1.618,0 -3.0405,-0.6632 -3.39301,-1.5818 -0.33385,-0.87 -0.60699,-8.9923 -0.60699,-18.0496 0,-18.2355 -0.72713,-21.1419 -5.96727,-23.8517 -3.76421,-1.9465 -6.54389,-1.9187 -9.96064,0.1 -5.10544,3.0158 -5.48705,4.5543 -6.04839,24.3835 l -0.5237,18.5 -2.5856,0.3006 c -1.42207,0.1653 -3.14563,-0.3743 -3.83012,-1.1991 z m 166.40263,-0.8515 c -0.30315,-1.2375 -0.42422,-12.5513 -0.26905,-25.1418 0.25303,-20.5296 0.46271,-23.0056 2.03214,-23.9949 1.27573,-0.8041 2.22427,-0.8041 3.5,10e-5 1.5737,0.992 1.77704,3.4975 2.01839,24.8703 0.1885,16.6917 -0.0712,24.1763 -0.87244,25.1417 -1.86119,2.2426 -5.77621,1.7078 -6.40904,-0.8754 z m 207.17976,1.5833 C 92.3,1326.3289 92,1317.5359 92,1307.1557 c 0,-16.5468 0.23341,-19.3305 1.89359,-22.5833 2.33893,-4.5828 4.61059,-6.6873 9.36089,-8.6721 11.30542,-4.7237 23.39267,2.0553 25.74069,14.4365 1.10843,5.8447 1.20317,23.7057 0.16722,31.5254 -0.57196,4.3174 -0.99605,5.0471 -3.10636,5.345 C 121.5708,1327.8403 121,1325.5106 121,1306.5711 l 0,-17.4089 -3.52792,-3.5279 c -3.21251,-3.2125 -3.90541,-3.4773 -7.75,-2.9618 -3.01672,0.4046 -5.00718,1.4448 -6.97208,3.6437 l -2.75,3.0776 0,17.0499 c 0,9.8406 -0.43771,17.8679 -1.03518,18.9842 -0.99542,1.86 -4.9166,2.6492 -6.29815,1.2676 z m 209.39442,-0.7597 c -0.84493,-1.0181 -1.09467,-6.8147 -0.87244,-20.25 0.27759,-16.7828 0.53776,-19.2573 2.39976,-22.8236 4.16862,-7.9843 14.70861,-10.8404 22.91159,-6.2085 7.69371,4.3444 4.91624,11.8234 -2.84585,7.6631 -4.11636,-2.2062 -6.85865,-2.4507 -9.80455,-0.8741 -3.91486,2.0952 -4.8496,6.78 -4.8496,24.3056 0,9.0477 -0.27314,17.1621 -0.60699,18.0321 -0.75601,1.9701 -4.74458,2.068 -6.33192,0.1554 z m 38.60558,0.7597 C 340.3,1326.3289 340,1314.8624 340,1301.2146 l 0,-24.8143 2.65559,-0.6665 c 4.93977,-1.2398 5.34441,0.6822 5.34441,25.3853 0,13.511 -0.41008,23.1408 -1.03518,24.3088 -0.99542,1.86 -4.9166,2.6492 -6.29815,1.2676 z m 63,0 c -1.15686,-1.1568 -0.72147,-11.8785 0.53333,-13.1333 4.4514,-4.4514 9.23167,5.3879 5.76482,11.8657 -0.99542,1.86 -4.9166,2.6492 -6.29815,1.2676 z M 549,1288.8468 c -25.0525,-4.7444 -47.6599,-15.9605 -61.28714,-30.4061 -8.49548,-9.0057 -11.70068,-14.5604 -12.41929,-21.523 -1.48018,-14.3416 10.95725,-27.5204 25.99623,-27.5457 7.7589,-0.013 11.7858,2.2003 21.3717,11.747 8.9316,8.895 16.4114,13.2706 28.0245,16.3938 10.4457,2.8093 27.3091,3.0329 35.7713,0.4742 20.4348,-6.1786 34.8687,-20.4841 40.9892,-40.6248 2.0704,-6.8128 3.3297,-27.4022 1.7363,-28.387 -0.605,-0.3739 -4.3811,0.974 -8.3914,2.9953 -15.9939,8.0615 -30.5497,11.3917 -49.7914,11.3917 -14.2121,0 -25.3944,-1.7483 -36.3496,-5.683 -34.1041,-12.2492 -59.10583,-39.1103 -69.35262,-74.5106 l -2.69379,-9.3064 -0.37728,-56.5 c -0.39441,-59.06682 -0.11221,-64.59602 3.98114,-78.00002 6.77607,-22.1889 20.78737,-42.4917 38.69885,-56.0758 9.3426,-7.0854 26.7358,-15.4814 38.5933,-18.6296 9.0066,-2.3913 11.7385,-2.655 27.5,-2.655 15.8364,0 18.4506,0.2551 27.5,2.6841 11.9399,3.2048 29.4487,11.6383 38.5933,18.5892 22.1494,16.8361 38.0019,43.5683 41.8728,70.6108 0.8172,5.7084 1.0465,38.96812 0.8065,116.97632 -0.3316,107.7693 -0.3596,109.0903 -2.4805,117 -5.3932,20.1137 -14.1805,35.44 -28.7459,50.1368 -14.7883,14.9218 -29.2949,23.5435 -48.7398,28.9677 -7.9659,2.2221 -11.7551,2.6467 -26.3064,2.9482 -11.8492,0.2455 -19.2724,-0.078 -24.5,-1.0681 z m 38.2738,-157.9125 c 19.773,-6.1746 33.5422,-20.0309 40.3172,-40.5721 1.6267,-4.9322 1.851,-10.4249 2.1727,-53.2036 0.4111,-54.67282 -0.043,-59.86572 -6.362,-72.75062 -2.7327,-5.5722 -5.7039,-9.5318 -11.36,-15.1391 -11.9532,-11.8499 -24.5946,-17.0412 -41.5417,-17.0596 -25.9823,-0.028 -48.3843,17.1866 -56.2152,43.1982 -2.395,7.9555 -3.1452,95.58542 -0.9283,108.43202 4.183,24.2399 21.5279,42.6372 45.1948,47.9374 8.1343,1.8216 21.4407,1.4312 28.7225,-0.8426 z m -701.21246,136.0018 c -1.74209,-2.0991 -0.92448,-9.6426 1.18866,-10.9669 2.86365,-1.7947 5.20172,0.4415 5.56111,5.3187 0.33579,4.557 -1.02036,7.0743 -3.81111,7.0743 -0.96531,0 -2.28771,-0.6417 -2.93866,-1.4261 z m 455.00314,0 c -0.66053,-0.7959 -1.04477,-3.5485 -0.87244,-6.25 0.27147,-4.2556 0.59757,-4.8686 2.75193,-5.1727 3.05979,-0.4319 5.05603,2.1205 5.05603,6.4647 0,5.1449 -4.25558,8.1871 -6.93552,4.958 z m -47.77893,-73.6771 c -47.03601,-5.4758 -87.15169,-39.9243 -98.54853,-84.6263 -2.2013,-8.6342 -2.23678,-9.7882 -2.22206,-72.2743 l 0.015,-63.50002 2.66623,-9.7058 c 8.6051,-31.3249 28.86608,-56.1932 57.30385,-70.3346 25.461,-12.6612 55.23789,-14.9838 82,-6.3961 37.33266,11.9796 65.70949,43.3751 73.60642,81.4365 1.55987,7.5182 1.86947,13.5741 1.88044,36.78212 0.0101,21.3337 -0.30599,28.5459 -1.36176,31.0727 -2.16524,5.1822 -7.66299,10.7537 -13.11782,13.2939 l -5.00728,2.3318 -73.21482,0.01 c -71.35664,0.01 -73.24109,0.059 -74.25,1.9441 -1.34058,2.5049 -1.33535,25.2243 0.008,35.94 1.34343,10.7141 4.68299,18.9332 11.21928,27.6123 9.30102,12.3502 21.79023,20.5627 37.30526,24.5308 23.24562,5.9452 51.1518,-2.197 65.38581,-19.0777 6.04688,-7.1712 13.10532,-10.3935 21.16614,-9.6625 6.85977,0.622 13.03516,3.8576 17.86798,9.3618 4.41151,5.0245 6.01206,9.2414 6.01206,15.8398 0,6.7843 -2.31777,12.0263 -8.75255,19.7952 -16.17518,19.5287 -43.77514,32.8389 -74.0471,35.7096 -11.98462,1.1365 -15.53756,1.1251 -25.9148,-0.083 z m 65.17705,-193.2458 c 1.65195,-1.20792 1.78406,-2.38432 1.26336,-11.25002 -1.20575,-20.5294 -11.46113,-38.193 -27.96294,-48.1627 -28.9264,-17.476 -66.46497,-7.1701 -82.0733,22.5326 -4.41662,8.4049 -6.25269,15.1379 -7.18716,26.3562 -0.60497,7.2625 -0.46226,8.7703 0.96518,10.1978 1.52675,1.52672 6.61179,1.67512 57.41256,1.67512 45.19308,0 56.08645,-0.2552 57.5823,-1.349 z m 479.0499,193.3054 c -17.9783,-2.0343 -41.0053,-11.3923 -56.1929,-22.8365 -9.4073,-7.0886 -20.4288,-18.4453 -26.3199,-27.1203 -5.6755,-8.3576 -12.5179,-22.9952 -15.2601,-32.6454 -2.2063,-7.7642 -2.2319,-8.6044 -2.2357,-73.3542 0,-65.19862 0.01,-65.53832 2.2882,-73.83162 3.1338,-11.391 8.8866,-24.3952 14.7151,-33.2637 9.7097,-14.774 28.3036,-30.9392 44.2825,-38.4984 29.4981,-13.9548 65.4125,-13.7908 94.7103,0.4327 28.8935,14.0271 49.8651,39.5001 58.1743,70.661 2.5345,9.5049 2.6872,11.4433 3.0852,39.15442 0.39,27.1627 0.2867,29.4514 -1.5123,33.5 -2.8022,6.3065 -6.5928,10.3406 -12.467,13.2678 l -5.1729,2.5778 -73.1036,0 c -55.5251,0 -73.3923,0.2886 -74.3037,1.2 -1.7539,1.7539 -1.5752,33.3662 0.2369,41.9153 2.3293,10.9887 7.6809,20.276 16.9349,29.389 8.6437,8.512 15.3822,12.641 27.1282,16.6228 5.927,2.0091 8.9162,2.3673 19.5,2.3366 21.3732,-0.062 32.7482,-4.5857 48.2027,-19.1695 7.3563,-6.9418 10.8041,-9.4882 14.0191,-10.3539 15.6939,-4.226 32.6864,8.5424 32.7562,24.6134 0.073,16.7307 -26.2434,40.3415 -55.478,49.7748 -16.1354,5.2066 -37.775,7.4623 -53.9875,5.6279 z M 903.557,999.66238 c 1.4561,-1.4561 1.6036,-2.9734 1.0293,-10.5816 -2.0932,-27.7282 -19.1692,-48.9198 -44.5863,-55.3324 -7.7312,-1.9506 -19.6491,-2.1301 -27.1173,-0.4085 -21.6338,4.987 -39.7747,23.5955 -44.3783,45.5223 -2.1164,10.0803 -2.0014,20.1112 0.2456,21.41992 1.1301,0.6582 21.4744,1.0301 57.4286,1.0497 51.0923,0.028 55.8186,-0.1096 57.3784,-1.66942 z M -194.76429,1185.3244 c -6.47882,-3.7155 -10.7839,-9.4641 -12.19589,-16.2853 -0.74553,-3.6016 -0.99071,-62.0811 -0.80572,-192.17692 l 0.2659,-187 3.10608,-5.5 c 4.62179,-8.1839 10.29183,-11.3966 20.90737,-11.8462 7.20315,-0.3051 8.77818,-0.04 13.26797,2.2354 4.81195,2.4384 8.21053,5.9172 11.3431,11.6108 1.14701,2.0848 1.45853,31.4844 1.87548,177 l 0.5,174.50002 86.5,0.5 86.5,0.5 4.09468,2.1911 C 28.46739,1145.266 34,1154.6797 34,1163.8622 c 0,9.141 -5.69096,18.7197 -13.31451,22.4102 -4.29345,2.0784 -4.87693,2.0897 -107.25121,2.0804 l -102.93428,-0.01 -5.26429,-3.019 z M 93.5,1186.2026 c -5.82247,-3.0148 -8.4688,-5.713 -11.12258,-11.3404 l -2.35788,-5 -0.01,-131.384 c -0.007,-96.84012 0.29537,-132.40242 1.15079,-135.25762 1.50571,-5.0256 6.96689,-11.3503 12.19689,-14.1256 3.26915,-1.7347 5.84577,-2.2018 12.22097,-2.2155 7.26107,-0.015 8.57324,0.2886 12.96907,3.0064 2.68986,1.663 6.25457,4.9642 7.92158,7.3359 l 3.03093,4.3123 0.27459,134.16412 c 0.30341,148.2422 0.69865,138.7137 -6.04134,145.6423 -4.95636,5.0951 -10.03654,6.9813 -18.73325,6.9555 -5.59937,-0.017 -8.51367,-0.5471 -11.5,-2.0934 z M 327.41934,851.00428 c -6.3146,-3.6114 -62.91865,-49.2292 -64.9723,-52.3618 -2.61309,-3.9861 -3.07963,-12.3354 -0.99435,-17.7956 3.09548,-8.1054 13.91535,-14.6357 21.30657,-12.8595 5.66094,1.3604 10.47606,4.7524 38.74074,27.2913 32.10016,25.5973 34.5,28.1515 34.5,36.7193 0,6.4781 -0.97659,9.129 -5.08833,13.812 -6.65244,7.5767 -15.79289,9.5977 -23.49233,5.1943 z M 93.5,850.20548 c -5.81561,-3.0072 -9.07275,-6.4227 -11.49527,-12.0539 -2.01077,-4.6742 -2.12115,-6.3174 -1.82257,-27.1325 0.29313,-20.4341 0.48522,-22.4679 2.47052,-26.1569 4.512,-8.384 11.86806,-12.5 22.3396,-12.5 8.18271,0 13.04471,1.7133 17.87983,6.3007 6.5957,6.2577 7.0814,8.5648 7.10593,33.753 0.0216,22.1526 -0.0231,22.644 -2.51115,27.6369 -2.52431,5.0656 -7.15572,9.1432 -12.78199,11.2535 -4.90551,1.84 -16.681,1.2281 -21.1849,-1.1008 z M 664.4448,583.26875 c -11.0761,-1.40372 -20.8241,-8.37964 -26.0091,-18.61278 l -2.9357,-5.79379 0,-22.5 c 0,-21.68774 0.086,-22.67298 2.3797,-27.29171 3.1536,-6.34996 9.6696,-12.91501 16.2645,-16.38708 4.8395,-2.54786 6.3198,-2.81967 15.3558,-2.81967 9.0066,0 10.5251,0.27659 15.2859,2.78427 11.1567,5.87662 17.1599,13.99691 19.259,26.05076 0.7288,4.18477 1.0264,12.90206 0.7682,22.49771 -0.3924,14.57924 -0.6175,16.09809 -3.2469,21.90003 -6.4242,14.17573 -21.1776,22.19291 -37.1214,20.17226 z M 66.26786,581.4662 C 56.92794,577.99881 50.61611,572.03388 46.10111,562.40781 43.56456,556.99983 43.5,556.35334 43.5,536.36218 c 0,-20.0586 0.0567,-20.62101 2.63517,-26.12001 3.70676,-7.9054 8.99532,-13.32661 16.70142,-17.12031 5.90395,-2.9065 7.54458,-3.25968 15.14238,-3.25968 7.145,0 9.44093,0.4312 14.21753,2.67018 10.42472,4.8865 17.60327,14.22807 19.7886,25.75126 1.45241,7.65851 1.23683,31.50294 -0.3456,38.22601 -2.52022,10.70734 -8.5646,18.22037 -18.92642,23.52512 -7.08065,3.62495 -18.82443,4.26063 -26.44522,1.43145 z m 149.05632,0.50561 c -9.21311,-2.98914 -16.66674,-9.84497 -21.18901,-19.48962 l -2.63517,-5.62001 0,-80.5 0,-80.5 2.9171,-5.9497 c 3.44726,-7.03103 9.6388,-13.36675 16.29119,-16.67057 4.12975,-2.05098 6.24225,-2.37973 15.29171,-2.37973 9.74077,0 10.88239,0.21185 15.7884,2.92983 6.03033,3.34086 12.13727,9.54398 15.08559,15.32316 3.9891,7.81929 4.23402,13.54634 3.92367,91.74701 l -0.29766,75 -2.29875,5.68826 c -3.0657,7.58607 -10.14402,14.97512 -17.70125,18.47832 -7.07952,3.28175 -18.36507,4.15276 -25.17582,1.94305 z m 143.00225,-2.05583 c -7.89028,-3.97691 -11.91391,-7.94109 -16.07829,-15.84072 l -2.74814,-5.21308 0,-409 0,-409 2.59433,-5.5 c 1.42688,-3.025 4.57688,-7.48255 7,-9.90567 2.42312,-2.42312 6.88067,-5.57312 9.90567,-7 4.71578,-2.22442 6.85456,-2.59433 15,-2.59433 8.52691,0 10.09346,0.3007 15.29379,2.93567 7.05753,3.57601 12.99635,9.81755 16.5458,17.38918 l 2.66041,5.67515 0,407.5 0,407.5 -2.87952,6.23431 c -3.20094,6.93018 -9.76453,13.74298 -16.72844,17.36358 -3.42565,1.78102 -6.48235,2.37016 -13.89204,2.67752 -9.27728,0.38482 -9.66818,0.30929 -16.67357,-3.22161 z m 149.98867,1.34849 c -6.5507,-2.51864 -14.2373,-9.75465 -17.9546,-16.90229 l -2.8605,-5.5 -0.27281,-80.65151 c -0.26974,-79.74081 -0.24918,-80.71469 1.82061,-86.24666 2.9367,-7.84909 10.2388,-15.54998 18.1607,-19.15265 5.1989,-2.36431 7.6808,-2.86882 14.2915,-2.90518 12.4365,-0.0684 22.0959,4.84052 28.8038,14.63806 6.8995,10.07752 6.7999,8.6182 6.4814,95.00205 l -0.2852,77.36048 -3.2806,6.66252 c -4.0085,8.141 -11.1453,14.87319 -18.8053,17.73914 -7.3228,2.73983 -18.9094,2.72031 -26.099,-0.044 z"
         id="path3077"
         inkscape:connector-curvature="0" />
      <path
         style="fill:#bd0f5f"
         d="m 253.06726,1343.4879 c -1.40383,-2.6231 -1.42386,-50.3015 -0.0233,-55.3446 1.34996,-4.8608 5.22152,-9.3658 10.2563,-11.9343 8.63156,-4.4035 20.31222,-0.4101 24.57854,8.4029 1.82082,3.7614 2.12115,6.1833 2.12115,17.1059 0,16.4059 -1.78441,20.5045 -10.95121,25.1535 -2.76547,1.4026 -4.89835,1.628 -10.73447,1.1347 -8.41077,-0.711 -8.10865,-1.0766 -8.55854,10.3562 -0.24528,6.2331 -0.36594,6.5127 -2.93852,6.8099 -1.86608,0.2156 -3.00763,-0.2971 -3.75,-1.6842 z m 25.61468,-26.6076 3.48194,-3.482 -0.33194,-12.4405 c -0.30779,-11.5354 -0.5073,-12.627 -2.74187,-15.0028 -4.86424,-5.1716 -13.90578,-4.042 -17.22107,2.1515 -1.5126,2.8258 -1.92832,20.7534 -0.59216,25.5367 0.96085,3.4398 6.11023,6.7103 10.57316,6.7153 2.49484,0 4.23884,-0.8851 6.83194,-3.4782 z m -283.62225,19.5934 c -0.78673,-1.47 -0.46388,-2.6333 1.45691,-5.25 3.31818,-4.5202 5.4834,-9.3008 5.4834,-12.1069 0,-2.7651 2.5998,-6.7546 4.40172,-6.7546 0.70857,0 2.07656,0.871 3.03997,1.9356 1.52364,1.6836 1.60889,2.6013 0.65483,7.0499 -2.66063,12.4061 -11.65195,21.4507 -15.03683,15.126 z m -322.63741,-9.5299 c -4.89661,-2.1322 -10.5799,-7.7015 -12.83907,-12.5816 -1.90363,-4.1121 -2.11123,-6.6702 -2.4083,-29.6754 -0.35608,-27.5749 -0.0224,-29.6745 4.63051,-29.1345 3.67309,0.4262 4.06672,3.3675 4.13695,30.912 0.0556,21.805 0.13782,22.7211 2.33143,25.9762 3.49267,5.1828 8.23847,7.9217 13.7262,7.9217 5.48773,0 10.23353,-2.7389 13.7262,-7.9217 2.21542,-3.2874 2.2738,-4.0201 2.2738,-28.5351 0,-27.1837 0.33281,-29.0562 5.04568,-28.3882 2.11488,0.2998 2.54382,1.0654 3.27499,5.845 0.46275,3.025 0.64877,15.2282 0.41338,27.1181 -0.39307,19.8551 -0.61074,21.9957 -2.66892,26.2474 -2.69642,5.57 -8.63353,10.889 -13.92357,12.4739 -5.13061,1.5372 -13.88962,1.4097 -17.71928,-0.2578 z m 106.07772,0.011 c -1.65,-0.7312 -4.26032,-2.5133 -5.80071,-3.9601 -4.67596,-4.3918 -5.69929,-8.3032 -5.69929,-21.7842 0,-14.4034 1.68051,-19.2845 8.10285,-23.5346 13.45295,-8.9027 29.86804,1.117 29.89157,18.2457 0.01,7.0182 -0.72321,7.3698 -15.99442,7.673 l -13.5,0.2681 -0.30678,3.6899 c -0.86501,10.4041 10.26858,16.379 19.21164,10.3101 2.02618,-1.375 4.24897,-2.5 4.93955,-2.5 1.75226,0 3.65559,2.0894 3.65559,4.0129 0,2.0804 -4.69755,6.5567 -8.3151,7.9235 -3.85095,1.455 -12.5423,1.2701 -16.1849,-0.3443 z m 17.33911,-34.4913 c 1.17846,-8.3378 -11.57939,-13.2913 -17.60505,-6.8355 -2.3384,2.5053 -3.77272,7.0541 -2.74741,8.7131 0.43326,0.701 4.13721,0.9899 10.34414,0.8068 9.35062,-0.2758 9.68038,-0.3643 10.00832,-2.6844 z m 56.33978,34.6148 C -149.60329,1324.9303 -166,1281.397 -166,1278.8127 c 0,-1.7575 0.69851,-2.5877 2.57322,-3.0582 1.41526,-0.3552 3.01574,-0.2033 3.55661,0.3375 0.54088,0.5409 3.65614,7.8862 6.92281,16.3228 5.80321,14.9877 7.29969,17.9284 8.50837,16.7197 0.32689,-0.3269 3.2402,-7.4276 6.47403,-15.7795 3.23382,-8.3518 6.42198,-15.8386 7.08481,-16.6372 0.66283,-0.7987 2.09856,-1.3179 3.19052,-1.1539 4.54744,0.6832 4.17462,2.6321 -5.21772,27.2748 -5.01439,13.1563 -9.67408,24.2743 -10.35486,24.7067 -1.80742,1.148 -3.34933,0.9898 -4.5589,-0.4676 z m 57.97403,-2.1942 c -1.67985,-1.9133 -3.31925,-4.9508 -3.64312,-6.75 -0.32387,-1.7993 -0.45856,-16.5464 -0.29932,-32.7714 l 0.28952,-29.5 2.44397,-0.345 c 4.79227,-0.6764 5.05603,0.9722 5.05603,31.6019 0,28.9828 0.16985,30.413 4.07569,34.3188 2.21106,2.211 2.43868,4.0099 0.72431,5.7243 -2.17207,2.1721 -5.5121,1.2919 -8.64708,-2.2786 z m 24.98887,1.8791 c -1.29702,-0.916 -3.19964,-3.5184 -4.22804,-5.783 -1.68955,-3.7205 -1.87194,-6.9666 -1.89179,-33.6675 -0.0161,-21.6754 0.29782,-29.8698 1.17804,-30.75 1.02235,-1.0223 5.38818,-1.7135 6.00048,-0.95 0.11026,0.1375 0.44776,14.0588 0.75,30.9363 l 0.54952,30.6863 2.83369,2.9558 c 5.27488,5.5021 0.9839,10.9338 -5.1919,6.5721 z m 27.06193,-0.5287 c -9.26294,-4.585 -12.44116,-13.9875 -10.56804,-31.2644 0.85941,-7.9269 1.48582,-10.0779 3.82981,-13.151 5.08449,-6.6661 14.50261,-9.1679 22.28003,-5.9183 4.7503,1.9848 7.02196,4.0893 9.36089,8.6721 2.27597,4.4593 2.65194,15.9155 0.57879,17.6361 -0.7568,0.6281 -6.80449,1.2105 -14.25,1.3724 l -12.9352,0.2808 -0.30657,4.7934 c -0.27658,4.3247 0.0315,5.1315 3.15,8.25 4.45467,4.4547 10.42107,4.8192 15.65657,0.9566 4.12228,-3.0413 6.56937,-3.1732 8.03589,-0.4329 2.55142,4.7673 -6.13918,10.8704 -15.53589,10.9101 -3.12269,0.013 -6.61309,-0.7772 -9.29628,-2.1054 z m 18.60485,-34.0405 c 0.47272,-4.0882 -4.2577,-8.8139 -9.53065,-9.521 -3.84459,-0.5155 -4.53749,-0.2507 -7.75,2.9618 -3.30824,3.3082 -4.56658,7.3559 -2.82746,9.095 0.38525,0.3853 4.99775,0.5728 10.25,0.4167 9.52144,-0.283 9.55045,-0.2917 9.85811,-2.9525 z m 71.93898,34.0994 c -2.06385,-1.0896 -4.98885,-3.848 -6.5,-6.13 l -2.74755,-4.1489 0,-19.4647 c 0,-17.4498 0.18115,-19.5792 1.75,-20.5708 1.27464,-0.8056 2.22536,-0.807 3.5,0 1.53395,0.9651 1.81173,3.4132 2.25,19.8293 l 0.5,18.7282 3.26578,2.9156 c 5.32207,4.7514 13.03247,3.635 16.47648,-2.3857 0.82111,-1.4354 1.43132,-8.4107 1.75774,-20.0926 0.43647,-15.6205 0.72234,-18.0338 2.25,-18.9949 1.27459,-0.8019 2.22541,-0.8005 3.5,0.01 1.56586,0.9898 1.75,3.0937 1.75,19.9949 0,22.0606 -0.74443,24.6852 -8.37372,29.5236 -5.61446,3.5606 -13.52605,3.8854 -19.37873,0.7958 z M 173.5,1326.9617 c -3.9539,-1.7426 -8.449,-6.3163 -10.14,-10.3174 -0.89684,-2.122 -1.36,-7.3782 -1.36,-15.4343 0,-10.4051 0.31449,-12.866 2.12115,-16.5981 4.26632,-8.813 15.94698,-12.8064 24.57854,-8.4029 7.43488,3.793 11.28209,10.5073 11.29473,19.7121 0.01,7.0182 -0.72321,7.3698 -15.99442,7.673 l -13.5,0.2681 -0.30678,3.6899 c -0.86501,10.4041 10.26858,16.379 19.21164,10.3101 2.02618,-1.375 4.24897,-2.5 4.93955,-2.5 1.75226,0 3.65559,2.0894 3.65559,4.0129 0,2.0804 -4.69755,6.5567 -8.3151,7.9235 -3.84345,1.4521 -12.53621,1.2712 -16.1849,-0.3369 z m 17.5,-34.9631 c 0,-3.5815 -3.46499,-8.0144 -7.18799,-9.1961 -3.13503,-0.995 -8.29991,0.3844 -10.57795,2.825 -2.31802,2.4835 -3.77524,7.05 -2.76919,8.6779 0.38799,0.6277 4.6891,1.0568 10.59415,1.0568 l 9.94098,0 0,-3.3636 z m 24.33068,34.4267 c -6.16805,-2.8006 -8.32283,-7.9266 -4.24859,-10.107 1.71599,-0.9184 2.73647,-0.6608 5.80375,1.4648 6.94297,4.8115 17.13617,2.2818 17.09885,-4.2435 -0.0237,-4.1363 -1.07482,-5.0866 -11.1166,-10.0499 C 212.35455,1298.2933 209,1294.6341 209,1288.3622 c 0,-7.3717 7.23078,-13.9951 15.28212,-13.9984 9.81984,0 19.12089,8.1954 14.51788,12.7984 -1.81589,1.8159 -3.1702,1.4819 -7.3,-1.8 -4.66997,-3.7112 -8.69731,-3.8936 -12.04545,-0.5455 -1.35,1.35 -2.45455,2.8644 -2.45455,3.3652 0,2.4544 4.6538,6.2634 10.206,8.3533 3.66017,1.3778 7.93849,3.9908 10.48797,6.4056 4.04523,3.8315 4.3058,4.4069 4.30229,9.5 -0.003,3.6712 -0.65487,6.4894 -2.02066,8.7295 -4.02389,6.6 -16.03965,9.1621 -24.64492,5.255 z m 157.98314,-0.013 c -5.32895,-3.2496 -5.76975,-4.9636 -6.31382,-24.5501 l -0.5,-18 -4.39842,-0.5 c -7.73126,-0.8789 -8.39603,-7.1578 -0.82642,-7.8058 4.4984,-0.3851 5.50799,-1.6182 5.90609,-7.2138 0.28285,-3.9758 0.60997,-4.5143 2.90435,-4.781 3.39559,-0.3947 4.70724,1.3609 5.09565,6.8202 l 0.31875,4.4804 6.5,0.2558 c 9.46797,0.3726 11,0.8796 11,3.6408 0,3.5742 -1.89274,4.4797 -10.04468,4.8054 l -7.45532,0.298 -0.27546,16.3931 c -0.23864,14.2021 -0.0509,16.6413 1.40499,18.25 2.08309,2.3018 6.21341,2.3763 10.78851,0.1946 4.08544,-1.9482 6.58196,-0.71 6.58196,3.2644 0,5.452 -14.07567,8.4784 -20.68618,4.4477 z m -654.22954,-0.4483 c -0.92082,-1.1095 -1.15866,-6.2597 -0.91441,-19.8005 0.37104,-20.5688 0.87082,-22.2929 8.17295,-28.195 3.44735,-2.7864 4.53545,-3.106 10.57303,-3.106 8.3954,0 13.72657,3.0642 16.963,9.7497 1.91525,3.9564 2.12115,6.0904 2.12115,21.9842 0,9.6814 -0.27314,18.3143 -0.60699,19.1843 -0.35251,0.9183 -1.77501,1.5815 -3.39301,1.5815 -1.618,0 -3.0405,-0.6632 -3.39301,-1.5818 -0.33385,-0.87 -0.60699,-8.9923 -0.60699,-18.0496 0,-18.2355 -0.72713,-21.1419 -5.96727,-23.8517 -3.76421,-1.9465 -6.54389,-1.9187 -9.96064,0.1 -5.10544,3.0158 -5.48705,4.5543 -6.04839,24.3835 l -0.5237,18.5 -2.5856,0.3006 c -1.42207,0.1653 -3.14563,-0.3743 -3.83012,-1.1991 z m 166.40263,-0.8515 c -0.30315,-1.2375 -0.42422,-12.5513 -0.26905,-25.1418 0.25303,-20.5296 0.46271,-23.0056 2.03214,-23.9949 1.27573,-0.8041 2.22427,-0.8041 3.5,10e-5 1.5737,0.992 1.77704,3.4975 2.01839,24.8703 0.1885,16.6917 -0.0712,24.1763 -0.87244,25.1417 -1.86119,2.2426 -5.77621,1.7078 -6.40904,-0.8754 z m 207.17976,1.5833 C 92.3,1326.3289 92,1317.5359 92,1307.1557 c 0,-16.5468 0.23341,-19.3305 1.89359,-22.5833 2.33893,-4.5828 4.61059,-6.6873 9.36089,-8.6721 11.30542,-4.7237 23.39267,2.0553 25.74069,14.4365 1.10843,5.8447 1.20317,23.7057 0.16722,31.5254 -0.57196,4.3174 -0.99605,5.0471 -3.10636,5.345 C 121.5708,1327.8403 121,1325.5106 121,1306.5711 l 0,-17.4089 -3.52792,-3.5279 c -3.21251,-3.2125 -3.90541,-3.4773 -7.75,-2.9618 -3.01672,0.4046 -5.00718,1.4448 -6.97208,3.6437 l -2.75,3.0776 0,17.0499 c 0,9.8406 -0.43771,17.8679 -1.03518,18.9842 -0.99542,1.86 -4.9166,2.6492 -6.29815,1.2676 z m 209.39442,-0.7597 c -0.84493,-1.0181 -1.09467,-6.8147 -0.87244,-20.25 0.27759,-16.7828 0.53776,-19.2573 2.39976,-22.8236 4.16862,-7.9843 14.70861,-10.8404 22.91159,-6.2085 7.69371,4.3444 4.91624,11.8234 -2.84585,7.6631 -4.11636,-2.2062 -6.85865,-2.4507 -9.80455,-0.8741 -3.91486,2.0952 -4.8496,6.78 -4.8496,24.3056 0,9.0477 -0.27314,17.1621 -0.60699,18.0321 -0.75601,1.9701 -4.74458,2.068 -6.33192,0.1554 z m 38.60558,0.7597 C 340.3,1326.3289 340,1314.8624 340,1301.2146 l 0,-24.8143 2.65559,-0.6665 c 4.93977,-1.2398 5.34441,0.6822 5.34441,25.3853 0,13.511 -0.41008,23.1408 -1.03518,24.3088 -0.99542,1.86 -4.9166,2.6492 -6.29815,1.2676 z m 63,0 c -1.15686,-1.1568 -0.72147,-11.8785 0.53333,-13.1333 4.4514,-4.4514 9.23167,5.3879 5.76482,11.8657 -0.99542,1.86 -4.9166,2.6492 -6.29815,1.2676 z M 549,1287.8468 c -28.5147,-5.4001 -53.5192,-19.09 -66.18632,-36.2368 -5.16522,-6.9919 -6.81588,-11.1079 -6.80391,-16.9657 0.0263,-12.9003 11.56996,-24.2052 24.77233,-24.2601 7.7196,-0.032 11.6908,2.1018 21.1996,11.3918 9.5491,9.3292 16.8151,13.5463 28.8748,16.7583 10.3415,2.7544 27.2773,2.9698 35.6435,0.4533 20.4521,-6.1519 35.9884,-21.5718 41.9395,-41.6254 1.9556,-6.59 3.1389,-26.8501 1.691,-28.9539 -0.8404,-1.2212 -2.5713,-0.7146 -10.8155,3.1658 -11.4626,5.3951 -16.9702,7.2445 -27.6744,9.2926 -11.1276,2.129 -31.8835,1.9375 -43.1406,-0.3981 -39.3601,-8.1664 -70.73202,-37.6523 -82.18805,-77.247 l -2.70796,-9.3594 -0.37728,-56.5 c -0.26846,-40.20482 -0.037,-58.66312 0.80246,-64.00002 4.25518,-27.0517 19.51944,-52.715 40.96673,-68.876 21.2475,-16.0104 44.981,-23.172 72.3083,-21.819 44.8133,2.2188 83.5182,32.2316 97.0032,75.2187 4.7586,15.1694 4.8218,17.0522 4.4652,132.97632 -0.3317,107.7935 -0.3591,109.0885 -2.4819,117 -5.1785,19.3006 -15.2937,36.828 -29.1597,50.5273 -13.9396,13.7721 -29.7806,22.8994 -48.631,28.0203 -10.393,2.8234 -37.9544,3.6235 -49.5,1.437 z m 40.8959,-156.8825 c 14.3469,-4.8539 26.5261,-15.2272 33.4615,-28.4999 7.1224,-13.6306 6.9888,-12.4523 7.4046,-65.2628 0.4167,-52.91952 -0.1038,-59.60632 -5.5353,-71.11612 -10.4398,-22.1229 -30.3566,-34.7233 -54.8852,-34.7233 -24.7909,0 -47.1024,15.8181 -55.33,39.2269 -3.7656,10.7138 -4.1678,17.8119 -3.7675,66.48072 0.4271,51.9162 0.4626,52.2325 7.3306,65.3024 13.5127,25.7147 43.863,37.8819 71.3213,28.5921 z m -703.83456,135.9718 c -1.74209,-2.0991 -0.92448,-9.6426 1.18866,-10.9669 2.86365,-1.7947 5.20172,0.4415 5.56111,5.3187 0.33579,4.557 -1.02036,7.0743 -3.81111,7.0743 -0.96531,0 -2.28771,-0.6417 -2.93866,-1.4261 z m 455.00314,0 c -0.66053,-0.7959 -1.04477,-3.5485 -0.87244,-6.25 0.27147,-4.2556 0.59757,-4.8686 2.75193,-5.1727 3.05979,-0.4319 5.05603,2.1205 5.05603,6.4647 0,5.1449 -4.25558,8.1871 -6.93552,4.958 z m -47.77893,-74.6771 c -45.93117,-5.3472 -85.13705,-38.3825 -97.139,-81.8503 l -2.63696,-9.5503 -0.005,-63.5 c -0.005,-62.56672 0.0283,-63.62972 2.24394,-72.32362 8.26071,-32.4135 29.95883,-58.8282 59.818,-72.8206 23.09585,-10.8231 53.45354,-12.8491 77.79778,-5.1919 38.46162,12.0975 66.51569,43.4378 74.26452,82.9637 2.50994,12.8029 2.59037,60.10252 0.11137,65.50172 -2.64078,5.7515 -6.7553,9.9687 -12.19953,12.5038 l -5.04087,2.3474 -73,0.025 c -44.48553,0.015 -73.58591,0.3972 -74.5,0.9778 -1.2499,0.7938 -1.49007,4.0842 -1.44045,19.7347 0.0349,10.9908 0.57007,21.0635 1.29023,24.282 4.39842,19.657 22.54628,38.7122 43.5197,45.6957 7.07424,2.3554 9.75447,2.7106 20.63052,2.7337 21.34591,0.045 34.80963,-5.1606 48.31149,-18.6807 11.45209,-11.4675 18.1854,-13.8431 28.89378,-10.1944 14.3455,4.888 20.87915,20.452 14.15557,33.7203 -3.18084,6.2771 -13.58663,17.3195 -21.99901,23.3449 -14.99566,10.7406 -36.52221,18.4069 -57.1891,20.3667 -11.95666,1.1339 -15.51351,1.1221 -25.88718,-0.086 z m 66.22629,-191.2856 c 1.5523,-1.13512 1.70879,-2.51862 1.26744,-11.20502 -1.72532,-33.9567 -27.04969,-58.7636 -59.77928,-58.5579 -16.89624,0.1062 -29.60118,5.4776 -41.5,17.5453 -11.88333,12.052 -17.01692,23.8562 -17.84176,41.0254 -0.44315,9.2242 -0.06,11.30512 2.19439,11.91782 0.90605,0.2463 26.90157,0.4751 57.76781,0.5086 44.43351,0.048 56.48923,-0.2089 57.8914,-1.2342 z m 478.00066,191.2783 c -22.5709,-2.3756 -48.0175,-14.4307 -66.4148,-31.4633 -13.0172,-12.0516 -25.3566,-32.3676 -30.3262,-49.93 -2.247,-7.9408 -2.2638,-8.4845 -2.2676,-73.5 l 0,-65.50002 2.6691,-9.5 c 5.2613,-18.7259 14.4259,-34.629 27.5763,-47.8523 22.4026,-22.5268 50.1355,-33.2822 82.165,-31.8651 47.8332,2.1163 87.3347,33.876 99.7714,80.2174 2.5573,9.5288 2.7026,11.3615 3.0825,38.89232 0.4486,32.5017 0.1684,34.2812 -6.4732,41.1199 -7.6362,7.8627 -2.839,7.4412 -84.9697,7.4658 -67.0293,0.02 -73.319,0.1624 -74.8498,1.6933 -1.4799,1.4798 -1.6239,3.9706 -1.2574,21.75 0.3638,17.6542 0.6884,20.8636 2.6877,26.5787 10.7509,30.7309 44.23,49.2201 77.0744,42.5649 15.9448,-3.2308 24.3883,-7.8828 36.5805,-20.1544 7.5992,-7.6487 11.1316,-9.3941 19.0335,-9.4049 5.437,-0.01 15.4509,5.0486 18.8653,9.5251 9.3696,12.2842 7.134,23.9022 -7.4189,38.5545 -17.5098,17.6294 -39.9659,27.7558 -68.5367,30.906 -10.1959,1.1242 -15.5605,1.1048 -26.9875,-0.098 z m 67.1547,-191.2362 c 1.2202,-1.23502 0.7663,-17.64732 -0.6591,-23.83372 -2.4548,-10.6541 -7.6846,-19.7133 -16.4021,-28.4123 -11.9453,-11.9201 -24.6794,-17.4335 -40.612,-17.5835 -34.1642,-0.3217 -60.9504,26.5572 -60.9613,61.1724 0,6.7986 0.4833,8.31742 2.9673,9.28362 2.3695,0.9216 114.7389,0.313 115.6672,-0.6265 z m -1099.61832,183.0967 c -3.98628,-2.4159 -6.15651,-4.6616 -8.45576,-8.75 l -3.09312,-5.5 0,-190.00002 0,-190 2.15842,-4 c 4.78505,-8.8677 11.35451,-12.5051 22.55946,-12.4906 9.4861,0.012 16.27455,3.5693 20.48658,10.7348 l 2.79554,4.7558 0.26112,173.9109 c 0.18879,125.73582 0.56898,174.28192 1.37245,175.25002 0.91243,1.0995 16.34621,1.3408 86.23887,1.3489 l 85.12756,0.01 5.04087,2.3474 c 6.26325,2.9165 9.95868,7.2088 11.93447,13.862 1.90733,6.4227 1.9199,10.0808 0.0562,16.3396 -1.73132,5.8142 -5.66769,10.44 -11.35136,13.3396 -4.08183,2.0824 -4.56792,2.0919 -106.93455,2.0919 l -102.83407,0 -5.36265,-3.25 z m 287.48547,0.4766 c -3.41617,-1.8758 -5.9125,-4.2623 -8,-7.648 L 81.5,1172.0195 81.21546,1039.9408 c -0.20726,-96.20302 0.0237,-133.20412 0.8502,-136.22232 1.4578,-5.3234 6.01391,-10.8233 11.28107,-13.618 6.38957,-3.3902 18.54515,-3.1861 24.65327,0.414 4.67245,2.7539 8.31305,6.9107 10.04715,11.4717 0.66057,1.7375 0.99439,48.5226 0.96737,135.57862 -0.0452,145.4981 0.31502,136.6335 -5.81757,143.1735 -4.35788,4.6474 -9.70419,6.5802 -18.19695,6.5786 -6.28386,0 -8.30519,-0.4435 -12.46565,-2.7281 z M 327.4459,850.01938 c -2.22975,-1.2753 -17.38223,-13.0041 -33.67216,-26.064 -20.63497,-16.5435 -30.09662,-24.7538 -31.1959,-27.0704 -0.86781,-1.8288 -1.57784,-5.5488 -1.57784,-8.2666 0,-14.405 15.11251,-24.0191 27.5,-17.4947 6.17323,3.2514 61.67698,48.3017 64.23414,52.1364 1.65548,2.4825 2.26586,4.853 2.26586,8.7996 0,15.1029 -15.21254,25.0183 -27.5541,17.9597 z m -235.4467,-1.9072 c -4.21051,-2.5283 -6.04712,-4.4689 -8.27112,-8.7393 l -2.85881,-5.4893 0.31537,-22.5107 0.31536,-22.5107 2.79554,-4.7558 c 1.9394,-3.2993 4.38943,-5.6699 8,-7.7406 4.51663,-2.5904 6.19567,-2.9832 12.70446,-2.9723 11.58383,0.019 18.72649,4.2827 22.56564,13.4687 2.31307,5.5345 2.1873,45.7617 -0.16065,51.3825 -3.67366,8.7946 -10.98947,13.0622 -22.44923,13.0955 -6.75508,0.02 -8.11038,-0.318 -12.95656,-3.228 z M 66.26786,581.4662 C 56.92794,577.99881 50.61611,572.03388 46.10111,562.40781 43.56456,556.99983 43.5,556.35334 43.5,536.36218 c 0,-20.0586 0.0567,-20.62101 2.63517,-26.12001 3.70676,-7.9054 8.99532,-13.32661 16.70142,-17.12031 5.90395,-2.9065 7.54458,-3.25968 15.14238,-3.25968 7.145,0 9.44093,0.4312 14.21753,2.67018 10.42472,4.8865 17.60327,14.22807 19.7886,25.75126 1.45241,7.65851 1.23683,31.50294 -0.3456,38.22601 -2.52022,10.70734 -8.5646,18.22037 -18.92642,23.52512 -7.08065,3.62495 -18.82443,4.26063 -26.44522,1.43145 z m 149.05632,0.50561 c -9.21311,-2.98914 -16.66674,-9.84497 -21.18901,-19.48962 l -2.63517,-5.62001 0,-80.5 0,-80.5 2.9171,-5.9497 c 3.44726,-7.03103 9.6388,-13.36675 16.29119,-16.67057 4.12975,-2.05098 6.24225,-2.37973 15.29171,-2.37973 9.74077,0 10.88239,0.21185 15.7884,2.92983 6.03033,3.34086 12.13727,9.54398 15.08559,15.32316 3.9891,7.81929 4.23402,13.54634 3.92367,91.74701 l -0.29766,75 -2.29875,5.68826 c -3.0657,7.58607 -10.14402,14.97512 -17.70125,18.47832 -7.07952,3.28175 -18.36507,4.15276 -25.17582,1.94305 z m 153.1658,0.37889 c -10.42593,-1.48087 -20.06842,-8.46132 -25.24007,-18.27195 L 340.5,558.86218 340.24517,151.16259 339.99035,-256.537 l 2.16745,-5.79304 c 2.99026,-7.99217 11.22092,-16.17712 19.34957,-19.24209 7.99334,-3.01395 19.67823,-2.60653 27.00789,0.9417 6.59703,3.19357 13.05491,9.84206 16.31456,16.79611 l 2.67018,5.6965 0,407.5 0,407.5 -2.63517,5.62001 c -3.35493,7.15506 -8.45635,12.79833 -14.56128,16.10794 -4.2398,2.29848 -6.7123,2.99659 -14.80355,4.17973 -1.1,0.16085 -4.25451,-0.0278 -7.01002,-0.41916 z M 663.7315,582.297 c -10.416,-1.69134 -19.9968,-8.82597 -24.7554,-18.43481 -2.4133,-4.87319 -2.4761,-5.57066 -2.4761,-27.5 0,-22.45613 0.01,-22.50975 2.6658,-27.5 3.2097,-6.02012 9.7059,-12.43885 15.8342,-15.64542 3.8529,-2.01602 5.9379,-2.35447 14.5,-2.35381 9.005,6.9e-4 10.5258,0.27771 15.2842,2.78415 6.2994,3.31816 12.3837,9.16371 15.1193,14.52599 3.2214,6.31432 4.3666,15.96361 3.9302,33.1127 -0.3915,15.38435 -0.4775,15.91053 -3.6541,22.36308 -6.7695,13.75087 -21.1853,21.12648 -36.4481,18.64812 z m -153.8606,-1.41106 c -8.9085,-3.27793 -14.8818,-9.05343 -19.3996,-18.75743 l -2.45176,-5.26632 -0.01,-79.71249 c -0.01,-77.71232 0.0412,-79.84885 2.02353,-85.14709 2.8617,-7.64856 8.7337,-13.9081 16.7483,-17.85367 5.9979,-2.95273 7.5423,-3.28273 15.1974,-3.24724 10.8655,0.0504 17.5928,3.02321 24.877,10.99326 9.125,9.98424 8.644,4.67088 8.644,95.48849 l 0,79.52126 -3.2867,6.6761 c -6.1804,12.55359 -16.6,18.84249 -31.0008,18.71092 -4.2419,-0.0388 -9.3456,-0.67136 -11.3416,-1.40579 z"
         id="path3075"
         inkscape:connector-curvature="0" />
      <path
         style="fill:#c5015d"
         d="m 253.06726,1343.4879 c -1.40383,-2.6231 -1.42386,-50.3015 -0.0233,-55.3446 1.34996,-4.8608 5.22152,-9.3658 10.2563,-11.9343 8.63156,-4.4035 20.31222,-0.4101 24.57854,8.4029 1.82082,3.7614 2.12115,6.1833 2.12115,17.1059 0,16.4059 -1.78441,20.5045 -10.95121,25.1535 -2.76547,1.4026 -4.89835,1.628 -10.73447,1.1347 -8.41077,-0.711 -8.10865,-1.0766 -8.55854,10.3562 -0.24528,6.2331 -0.36594,6.5127 -2.93852,6.8099 -1.86608,0.2156 -3.00763,-0.2971 -3.75,-1.6842 z m 25.61468,-26.6076 3.48194,-3.482 -0.33194,-12.4405 c -0.30779,-11.5354 -0.5073,-12.627 -2.74187,-15.0028 -4.86424,-5.1716 -13.90578,-4.042 -17.22107,2.1515 -1.5126,2.8258 -1.92832,20.7534 -0.59216,25.5367 0.96085,3.4398 6.11023,6.7103 10.57316,6.7153 2.49484,0 4.23884,-0.8851 6.83194,-3.4782 z m -283.62225,19.5934 c -0.78673,-1.47 -0.46388,-2.6333 1.45691,-5.25 3.31818,-4.5202 5.4834,-9.3008 5.4834,-12.1069 0,-2.7651 2.5998,-6.7546 4.40172,-6.7546 0.70857,0 2.07656,0.871 3.03997,1.9356 1.52364,1.6836 1.60889,2.6013 0.65483,7.0499 -2.66063,12.4061 -11.65195,21.4507 -15.03683,15.126 z m -322.63741,-9.5299 c -4.89661,-2.1322 -10.5799,-7.7015 -12.83907,-12.5816 -1.90363,-4.1121 -2.11123,-6.6702 -2.4083,-29.6754 -0.35608,-27.5749 -0.0224,-29.6745 4.63051,-29.1345 3.67309,0.4262 4.06672,3.3675 4.13695,30.912 0.0556,21.805 0.13782,22.7211 2.33143,25.9762 3.49267,5.1828 8.23847,7.9217 13.7262,7.9217 5.48773,0 10.23353,-2.7389 13.7262,-7.9217 2.21542,-3.2874 2.2738,-4.0201 2.2738,-28.5351 0,-27.1837 0.33281,-29.0562 5.04568,-28.3882 2.11488,0.2998 2.54382,1.0654 3.27499,5.845 0.46275,3.025 0.64877,15.2282 0.41338,27.1181 -0.39307,19.8551 -0.61074,21.9957 -2.66892,26.2474 -2.69642,5.57 -8.63353,10.889 -13.92357,12.4739 -5.13061,1.5372 -13.88962,1.4097 -17.71928,-0.2578 z m 106.07772,0.011 c -1.65,-0.7312 -4.26032,-2.5133 -5.80071,-3.9601 -4.67596,-4.3918 -5.69929,-8.3032 -5.69929,-21.7842 0,-14.4034 1.68051,-19.2845 8.10285,-23.5346 13.45295,-8.9027 29.86804,1.117 29.89157,18.2457 0.01,7.0182 -0.72321,7.3698 -15.99442,7.673 l -13.5,0.2681 -0.30678,3.6899 c -0.86501,10.4041 10.26858,16.379 19.21164,10.3101 2.02618,-1.375 4.24897,-2.5 4.93955,-2.5 1.75226,0 3.65559,2.0894 3.65559,4.0129 0,2.0804 -4.69755,6.5567 -8.3151,7.9235 -3.85095,1.455 -12.5423,1.2701 -16.1849,-0.3443 z m 17.33911,-34.4913 c 1.17846,-8.3378 -11.57939,-13.2913 -17.60505,-6.8355 -2.3384,2.5053 -3.77272,7.0541 -2.74741,8.7131 0.43326,0.701 4.13721,0.9899 10.34414,0.8068 9.35062,-0.2758 9.68038,-0.3643 10.00832,-2.6844 z m 56.33978,34.6148 C -149.60329,1324.9303 -166,1281.397 -166,1278.8127 c 0,-1.7575 0.69851,-2.5877 2.57322,-3.0582 1.41526,-0.3552 3.01574,-0.2033 3.55661,0.3375 0.54088,0.5409 3.65614,7.8862 6.92281,16.3228 5.80321,14.9877 7.29969,17.9284 8.50837,16.7197 0.32689,-0.3269 3.2402,-7.4276 6.47403,-15.7795 3.23382,-8.3518 6.42198,-15.8386 7.08481,-16.6372 0.66283,-0.7987 2.09856,-1.3179 3.19052,-1.1539 4.54744,0.6832 4.17462,2.6321 -5.21772,27.2748 -5.01439,13.1563 -9.67408,24.2743 -10.35486,24.7067 -1.80742,1.148 -3.34933,0.9898 -4.5589,-0.4676 z m 57.97403,-2.1942 c -1.67985,-1.9133 -3.31925,-4.9508 -3.64312,-6.75 -0.32387,-1.7993 -0.45856,-16.5464 -0.29932,-32.7714 l 0.28952,-29.5 2.44397,-0.345 c 4.79227,-0.6764 5.05603,0.9722 5.05603,31.6019 0,28.9828 0.16985,30.413 4.07569,34.3188 2.21106,2.211 2.43868,4.0099 0.72431,5.7243 -2.17207,2.1721 -5.5121,1.2919 -8.64708,-2.2786 z m 24.98887,1.8791 c -1.29702,-0.916 -3.19964,-3.5184 -4.22804,-5.783 -1.68955,-3.7205 -1.87194,-6.9666 -1.89179,-33.6675 -0.0161,-21.6754 0.29782,-29.8698 1.17804,-30.75 1.02235,-1.0223 5.38818,-1.7135 6.00048,-0.95 0.11026,0.1375 0.44776,14.0588 0.75,30.9363 l 0.54952,30.6863 2.83369,2.9558 c 5.27488,5.5021 0.9839,10.9338 -5.1919,6.5721 z m 27.06193,-0.5287 c -9.26294,-4.585 -12.44116,-13.9875 -10.56804,-31.2644 0.85941,-7.9269 1.48582,-10.0779 3.82981,-13.151 5.08449,-6.6661 14.50261,-9.1679 22.28003,-5.9183 4.7503,1.9848 7.02196,4.0893 9.36089,8.6721 2.27597,4.4593 2.65194,15.9155 0.57879,17.6361 -0.7568,0.6281 -6.80449,1.2105 -14.25,1.3724 l -12.9352,0.2808 -0.30657,4.7934 c -0.27658,4.3247 0.0315,5.1315 3.15,8.25 4.45467,4.4547 10.42107,4.8192 15.65657,0.9566 4.12228,-3.0413 6.56937,-3.1732 8.03589,-0.4329 2.55142,4.7673 -6.13918,10.8704 -15.53589,10.9101 -3.12269,0.013 -6.61309,-0.7772 -9.29628,-2.1054 z m 18.60485,-34.0405 c 0.47272,-4.0882 -4.2577,-8.8139 -9.53065,-9.521 -3.84459,-0.5155 -4.53749,-0.2507 -7.75,2.9618 -3.30824,3.3082 -4.56658,7.3559 -2.82746,9.095 0.38525,0.3853 4.99775,0.5728 10.25,0.4167 9.52144,-0.283 9.55045,-0.2917 9.85811,-2.9525 z m 71.93898,34.0994 c -2.06385,-1.0896 -4.98885,-3.848 -6.5,-6.13 l -2.74755,-4.1489 0,-19.4647 c 0,-17.4498 0.18115,-19.5792 1.75,-20.5708 1.27464,-0.8056 2.22536,-0.807 3.5,0 1.53395,0.9651 1.81173,3.4132 2.25,19.8293 l 0.5,18.7282 3.26578,2.9156 c 5.32207,4.7514 13.03247,3.635 16.47648,-2.3857 0.82111,-1.4354 1.43132,-8.4107 1.75774,-20.0926 0.43647,-15.6205 0.72234,-18.0338 2.25,-18.9949 1.27459,-0.8019 2.22541,-0.8005 3.5,0.01 1.56586,0.9898 1.75,3.0937 1.75,19.9949 0,22.0606 -0.74443,24.6852 -8.37372,29.5236 -5.61446,3.5606 -13.52605,3.8854 -19.37873,0.7958 z M 173.5,1326.9617 c -3.9539,-1.7426 -8.449,-6.3163 -10.14,-10.3174 -0.89684,-2.122 -1.36,-7.3782 -1.36,-15.4343 0,-10.4051 0.31449,-12.866 2.12115,-16.5981 4.26632,-8.813 15.94698,-12.8064 24.57854,-8.4029 7.43488,3.793 11.28209,10.5073 11.29473,19.7121 0.01,7.0182 -0.72321,7.3698 -15.99442,7.673 l -13.5,0.2681 -0.30678,3.6899 c -0.86501,10.4041 10.26858,16.379 19.21164,10.3101 2.02618,-1.375 4.24897,-2.5 4.93955,-2.5 1.75226,0 3.65559,2.0894 3.65559,4.0129 0,2.0804 -4.69755,6.5567 -8.3151,7.9235 -3.84345,1.4521 -12.53621,1.2712 -16.1849,-0.3369 z m 17.5,-34.9631 c 0,-3.5815 -3.46499,-8.0144 -7.18799,-9.1961 -3.13503,-0.995 -8.29991,0.3844 -10.57795,2.825 -2.31802,2.4835 -3.77524,7.05 -2.76919,8.6779 0.38799,0.6277 4.6891,1.0568 10.59415,1.0568 l 9.94098,0 0,-3.3636 z m 24.33068,34.4267 c -6.16805,-2.8006 -8.32283,-7.9266 -4.24859,-10.107 1.71599,-0.9184 2.73647,-0.6608 5.80375,1.4648 6.94297,4.8115 17.13617,2.2818 17.09885,-4.2435 -0.0237,-4.1363 -1.07482,-5.0866 -11.1166,-10.0499 C 212.35455,1298.2933 209,1294.6341 209,1288.3622 c 0,-7.3717 7.23078,-13.9951 15.28212,-13.9984 9.81984,0 19.12089,8.1954 14.51788,12.7984 -1.81589,1.8159 -3.1702,1.4819 -7.3,-1.8 -4.66997,-3.7112 -8.69731,-3.8936 -12.04545,-0.5455 -1.35,1.35 -2.45455,2.8644 -2.45455,3.3652 0,2.4544 4.6538,6.2634 10.206,8.3533 3.66017,1.3778 7.93849,3.9908 10.48797,6.4056 4.04523,3.8315 4.3058,4.4069 4.30229,9.5 -0.003,3.6712 -0.65487,6.4894 -2.02066,8.7295 -4.02389,6.6 -16.03965,9.1621 -24.64492,5.255 z m 157.98314,-0.013 c -5.32895,-3.2496 -5.76975,-4.9636 -6.31382,-24.5501 l -0.5,-18 -4.39842,-0.5 c -7.73126,-0.8789 -8.39603,-7.1578 -0.82642,-7.8058 4.4984,-0.3851 5.50799,-1.6182 5.90609,-7.2138 0.28285,-3.9758 0.60997,-4.5143 2.90435,-4.781 3.39559,-0.3947 4.70724,1.3609 5.09565,6.8202 l 0.31875,4.4804 6.5,0.2558 c 9.46797,0.3726 11,0.8796 11,3.6408 0,3.5742 -1.89274,4.4797 -10.04468,4.8054 l -7.45532,0.298 -0.27546,16.3931 c -0.23864,14.2021 -0.0509,16.6413 1.40499,18.25 2.08309,2.3018 6.21341,2.3763 10.78851,0.1946 4.08544,-1.9482 6.58196,-0.71 6.58196,3.2644 0,5.452 -14.07567,8.4784 -20.68618,4.4477 z m -654.22954,-0.4483 c -0.92082,-1.1095 -1.15866,-6.2597 -0.91441,-19.8005 0.37104,-20.5688 0.87082,-22.2929 8.17295,-28.195 3.44735,-2.7864 4.53545,-3.106 10.57303,-3.106 8.3954,0 13.72657,3.0642 16.963,9.7497 1.91525,3.9564 2.12115,6.0904 2.12115,21.9842 0,9.6814 -0.27314,18.3143 -0.60699,19.1843 -0.35251,0.9183 -1.77501,1.5815 -3.39301,1.5815 -1.618,0 -3.0405,-0.6632 -3.39301,-1.5818 -0.33385,-0.87 -0.60699,-8.9923 -0.60699,-18.0496 0,-18.2355 -0.72713,-21.1419 -5.96727,-23.8517 -3.76421,-1.9465 -6.54389,-1.9187 -9.96064,0.1 -5.10544,3.0158 -5.48705,4.5543 -6.04839,24.3835 l -0.5237,18.5 -2.5856,0.3006 c -1.42207,0.1653 -3.14563,-0.3743 -3.83012,-1.1991 z m 166.40263,-0.8515 c -0.30315,-1.2375 -0.42422,-12.5513 -0.26905,-25.1418 0.25303,-20.5296 0.46271,-23.0056 2.03214,-23.9949 1.27573,-0.8041 2.22427,-0.8041 3.5,10e-5 1.5737,0.992 1.77704,3.4975 2.01839,24.8703 0.1885,16.6917 -0.0712,24.1763 -0.87244,25.1417 -1.86119,2.2426 -5.77621,1.7078 -6.40904,-0.8754 z m 207.17976,1.5833 C 92.3,1326.3289 92,1317.5359 92,1307.1557 c 0,-16.5468 0.23341,-19.3305 1.89359,-22.5833 2.33893,-4.5828 4.61059,-6.6873 9.36089,-8.6721 11.30542,-4.7237 23.39267,2.0553 25.74069,14.4365 1.10843,5.8447 1.20317,23.7057 0.16722,31.5254 -0.57196,4.3174 -0.99605,5.0471 -3.10636,5.345 C 121.5708,1327.8403 121,1325.5106 121,1306.5711 l 0,-17.4089 -3.52792,-3.5279 c -3.21251,-3.2125 -3.90541,-3.4773 -7.75,-2.9618 -3.01672,0.4046 -5.00718,1.4448 -6.97208,3.6437 l -2.75,3.0776 0,17.0499 c 0,9.8406 -0.43771,17.8679 -1.03518,18.9842 -0.99542,1.86 -4.9166,2.6492 -6.29815,1.2676 z m 209.39442,-0.7597 c -0.84493,-1.0181 -1.09467,-6.8147 -0.87244,-20.25 0.27759,-16.7828 0.53776,-19.2573 2.39976,-22.8236 4.16862,-7.9843 14.70861,-10.8404 22.91159,-6.2085 7.69371,4.3444 4.91624,11.8234 -2.84585,7.6631 -4.11636,-2.2062 -6.85865,-2.4507 -9.80455,-0.8741 -3.91486,2.0952 -4.8496,6.78 -4.8496,24.3056 0,9.0477 -0.27314,17.1621 -0.60699,18.0321 -0.75601,1.9701 -4.74458,2.068 -6.33192,0.1554 z m 38.60558,0.7597 C 340.3,1326.3289 340,1314.8624 340,1301.2146 l 0,-24.8143 2.65559,-0.6665 c 4.93977,-1.2398 5.34441,0.6822 5.34441,25.3853 0,13.511 -0.41008,23.1408 -1.03518,24.3088 -0.99542,1.86 -4.9166,2.6492 -6.29815,1.2676 z m 63,0 c -1.15686,-1.1568 -0.72147,-11.8785 0.53333,-13.1333 4.4514,-4.4514 9.23167,5.3879 5.76482,11.8657 -0.99542,1.86 -4.9166,2.6492 -6.29815,1.2676 z M 551,1286.8679 c -4.125,-0.7091 -9.525,-2.0065 -12,-2.883 -2.475,-0.8765 -5.3392,-1.6001 -6.365,-1.6081 -1.0257,-0.01 -6.5297,-2.2646 -12.231,-5.0146 -5.7014,-2.75 -10.7856,-5 -11.2984,-5 -1.932,0 -16.8275,-11.8594 -21.26053,-16.927 C 481.74586,1248.4629 477,1239.1623 477,1234.1819 c 0,-7.5776 6.92898,-16.9271 15.5,-20.9148 4.9052,-2.2821 11.7868,-2.3155 16.6372,-0.081 3.8351,1.767 23.8864,20.1758 21.9759,20.1758 -0.6122,0 -1.1131,0.4538 -1.1131,1.0085 0,0.6339 0.6707,0.5896 1.8059,-0.1194 1.4174,-0.8852 2.6544,-0.7014 5.75,0.8545 9.9283,4.9898 26.0249,7.9003 38.3427,6.9329 8.0597,-0.633 17.6237,-3.3735 25.0798,-7.1867 4.3795,-2.2397 20.0216,-15.8608 20.0216,-17.4348 0,-0.4279 1.741,-3.9454 3.8689,-7.8165 4.9466,-8.999 7.1311,-18.7219 7.1311,-31.7387 0,-12.9087 -0.8658,-14.0638 -7.8275,-10.4435 -2.5699,1.3364 -5.3475,2.9256 -6.1725,3.5316 -2.3638,1.7364 -9.7244,4.4095 -19.5,7.0819 -12.6161,3.4489 -34.9875,4.3479 -46.1789,1.8557 -9.1194,-2.0307 -16.402,-4.1644 -21.3211,-6.2467 -7.9415,-3.3616 -18.276,-8.8555 -18.6955,-9.9386 -0.2471,-0.6378 -1.6055,-1.4499 -3.0188,-1.8046 -2.9325,-0.736 -24.2857,-21.7953 -24.2857,-23.9514 0,-0.7797 -0.50551,-1.586 -1.12336,-1.792 -3.19952,-1.0665 -13.94259,-23.7151 -16.99156,-35.8217 -2.3806,-9.4527 -2.38508,-9.5822 -2.38508,-68.9705 0,-58.31022 0.0429,-59.62002 2.1451,-65.50002 1.17981,-3.3 2.46927,-7.575 2.86547,-9.5 0.3962,-1.925 1.29707,-4.625 2.00193,-6 0.70487,-1.375 2.66814,-5.425 4.36284,-9 5.22218,-11.0163 13.97356,-22.0877 24.78776,-31.3589 13.7574,-11.7946 31.5036,-20.7665 47.9974,-24.2657 10.9701,-2.3274 36.8702,-2.3216 44.8395,0.01 2.75,0.8046 7.925,2.3211 11.5,3.37 9.2231,2.706 30.9181,14.1521 32.1571,16.9658 0.1886,0.4283 2.9633,2.9791 6.1661,5.6686 3.2028,2.6894 7.6773,7.4144 9.9435,10.5 2.2661,3.0855 5.1286,6.7351 6.3611,8.1101 2.5922,2.892 10.7046,18.8502 12.2004,24 0.5591,1.925 2.064,6.875 3.3442,11 l 2.3276,7.5 0,112.50002 c 0,112.303 0,112.5131 -2.1604,120 -3.9246,13.6245 -8.5657,24.2203 -15.6367,35.6995 -4.274,6.9382 -12.4645,16.3005 -14.2605,16.3005 -0.7933,0 -1.4424,0.6138 -1.4424,1.364 0,0.7502 -1.8,2.6114 -4,4.136 -2.2,1.5246 -4,3.1164 -4,3.5372 0,0.8493 -5.9487,4.6855 -10.318,6.6539 -1.5499,0.6982 -4.1053,2.1862 -5.6788,3.3066 -4.4529,3.1707 -21.6051,9.0162 -31.0032,10.5658 -10.3652,1.7091 -27.8764,1.6825 -38,-0.058 z m 39,-154.3873 c 13.0815,-4.6421 26.8893,-15.0091 31.7988,-23.8747 0.9357,-1.6896 2.7158,-4.8969 3.956,-7.1273 5.3878,-9.6904 5.5929,-11.8873 6.0011,-64.2835 0.3167,-40.65082 0.1243,-50.14402 -1.1683,-57.63402 -3.4085,-19.7512 -15.0442,-35.0115 -33.5876,-44.0501 l -9.5,-4.6306 -13.3527,-0.3385 c -12.8278,-0.3252 -13.7514,-0.2093 -23.5,2.9479 -8.4507,2.737 -11.2341,4.1951 -16.6473,8.7214 -11.7864,9.8553 -17.5511,18.242 -21.7557,31.651 -1.3077,4.1705 -1.6363,13.1287 -1.9809,54.00002 -0.4536,53.809 -0.096,58.9478 4.9329,70.8564 7.4483,17.6382 21.8886,30.2393 39.2098,34.2157 3.9017,0.8957 7.5439,1.8056 8.0939,2.0219 2.7693,1.0893 22.4456,-0.682 27.5,-2.4756 z m -703.93866,134.4555 c -1.74209,-2.0991 -0.92448,-9.6426 1.18866,-10.9669 2.86365,-1.7947 5.20172,0.4415 5.56111,5.3187 0.33579,4.557 -1.02036,7.0743 -3.81111,7.0743 -0.96531,0 -2.28771,-0.6417 -2.93866,-1.4261 z m 455.00314,0 c -0.66053,-0.7959 -1.04477,-3.5485 -0.87244,-6.25 0.27147,-4.2556 0.59757,-4.8686 2.75193,-5.1727 3.05979,-0.4319 5.05603,2.1205 5.05603,6.4647 0,5.1449 -4.25558,8.1871 -6.93552,4.958 z M 293,1190.8828 c -19.11994,-3.0438 -35.43438,-8.7472 -45.47926,-15.8993 -1.63859,-1.1667 -3.71656,-2.5713 -4.61773,-3.1213 -7.78118,-4.749 -17.84365,-13.7445 -24.91161,-22.2701 -4.34292,-5.2386 -5.09386,-6.7193 -4.56438,-9 0.42188,-1.8173 0.32666,-2.2692 -0.28484,-1.3518 -1.15403,1.7314 -2.6133,0.8589 -4.42918,-2.648 -6.87435,-13.2761 -8.76141,-17.6544 -10.22783,-23.7301 -0.92923,-3.85 -2.20603,-8.8 -2.83734,-11 -0.80797,-2.8157 -1.14783,-22.2093 -1.14783,-65.5 l 0,-61.50002 2.78771,-10 c 4.05495,-14.5458 9.55305,-26.3437 16.46229,-35.325 2.3375,-3.0385 4.25,-5.8163 4.25,-6.1729 0,-2.5018 19.9174,-20.234 25.2127,-22.4465 2.00779,-0.8389 3.93909,-1.9922 4.29177,-2.5628 1.12441,-1.8194 11.68594,-6.6557 21.49553,-9.8433 15.26628,-4.9606 41.12688,-6.5296 52.5,-3.1851 1.65,0.4852 5.475,1.4359 8.5,2.1126 6.11189,1.3674 20.19068,7.3342 23.88486,10.1228 1.31167,0.9901 2.79339,1.8002 3.2927,1.8002 1.99238,0 12.78372,8.7745 20.71736,16.8455 8.42127,8.567 17.10508,20.5732 17.10508,23.6494 0,0.9046 1.27447,3.5258 2.83216,5.8249 7.50336,11.0747 10.0595,26.3273 10.12393,60.41002 0.0369,19.5044 -0.22647,23.9145 -1.64203,27.5 -1.94261,4.9203 -6.73785,11.3057 -9.15729,12.1939 -0.91122,0.3346 -2.78177,1.2732 -4.15677,2.0859 -2.14451,1.2676 -12.7646,1.4736 -74.68683,1.4491 -39.70275,-0.016 -73.34417,0.262 -74.7587,0.617 -1.63081,0.4093 -2.80333,1.5676 -3.20441,3.1657 -0.3479,1.3861 -0.38182,11.3488 -0.0754,22.1394 0.66635,23.465 1.49374,26.6581 10.93523,42.2015 1.61431,2.6577 6.46009,7.5419 11.53677,11.6282 12.74774,10.2611 23.26341,14.5971 39.65613,16.3518 10.12771,1.0841 15.71168,0.3072 30.44858,-4.2364 10.26321,-3.1643 13.32393,-5.1953 24.9514,-16.5568 5.75964,-5.6279 8.5742,-7.601 12.69614,-8.9003 5.03332,-1.5866 5.60234,-1.5751 11.47259,0.2309 3.50163,1.0773 7.93568,3.3919 10.23838,5.3445 12.09711,10.2577 9.78129,25.3948 -6.16341,40.2865 -11.26616,10.5221 -12.84414,11.5934 -29.4309,19.9815 -8.48142,4.2891 -25.56065,8.6426 -36.61557,9.3333 -1.925,0.1203 -6.875,0.4684 -11,0.7735 -4.34958,0.3218 -11.07048,-0.014 -16,-0.7984 z m 72,-57.5206 c 0,-0.55 -0.45,-1 -1,-1 -0.55,0 -1,0.45 -1,1 0,0.55 0.45,1 1,1 0.55,0 1,-0.45 1,-1 z m -4.29981,-131.5026 c 1.9578,-1.3713 2.1045,-2.17932 1.67937,-9.25002 -1.28044,-21.2958 -6.21293,-33.0808 -19.33972,-46.2076 -12.90737,-12.9073 -31.96803,-18.752 -51.04598,-15.6524 -9.53856,1.5497 -19.27094,5.253 -25.99386,9.8909 -10.30778,7.1111 -20.91134,22.5897 -23.78594,34.7217 -0.58644,2.475 -1.37651,9.0284 -1.75572,14.563 -0.59627,8.7028 -0.46144,10.29102 0.99752,11.75002 1.54368,1.5437 6.58929,1.687 59.39306,1.687 49.71943,0 58.00297,-0.208 59.85127,-1.5026 z M 837,1190.8913 c -20.8748,-3.2462 -34.6604,-8.7368 -52.8107,-21.0336 -5.0335,-3.4102 -20.9725,-18.4978 -23.1851,-21.9466 -9.2416,-14.405 -10.9245,-17.1639 -10.9617,-17.9702 -0.023,-0.5067 -0.6262,-1.6317 -1.3396,-2.5 -2.5287,-3.0775 -6.8657,-16.4617 -8.7746,-27.0787 -0.445,-2.475 -0.8359,-30.3381 -0.8687,-61.9181 -0.057,-55.20312 0.5241,-68.82092 3.0539,-71.53192 0.4876,-0.5225 0.8914,-2.0975 0.8973,-3.5 0.021,-4.9702 5.0816,-18.4647 9.3938,-25.05 1.2605,-1.925 3.9656,-6.0971 6.0113,-9.2714 6.1398,-9.527 26.3221,-28.7286 30.196,-28.7286 0.6151,0 2.233,-0.8768 3.5953,-1.9483 3.5241,-2.7721 15.696,-8.7012 19.5418,-9.5192 2.8024,-0.596 3.1585,-0.4551 2.5907,1.0247 -0.4616,1.2027 -0.2383,1.5757 0.7467,1.2473 0.7728,-0.2576 1.407,-1.3315 1.4094,-2.3864 0,-1.5919 1.1945,-2.1241 7.0042,-3.1298 3.85,-0.6665 11.5,-1.5082 17,-1.8706 35.1599,-2.3164 69.0102,13.7054 91.9546,43.5233 6.3499,8.2522 15.7518,28.0879 16.3331,34.4587 0.2559,2.8052 0.791,5.5503 1.1891,6.1003 2.317,3.201 3.137,14.4658 2.839,39.00002 l -0.3158,26 -3.7447,5.7611 c -3.0029,4.62 -4.8088,6.2479 -9.1165,8.2183 l -5.3717,2.4571 -72.6714,0.017 c -50.6446,0.012 -73.2907,0.3483 -74.7145,1.1103 -1.9832,1.0613 -2.0319,1.7583 -1.6603,23.7649 0.4055,24.0182 0.1561,22.5625 6.0257,35.1715 2.2461,4.8251 8.1876,12.628 13.3253,17.5 16.0804,15.2487 42.1919,22.3079 63.4281,17.1478 16.4624,-4.0001 23.1739,-7.8471 35.9697,-20.6176 4.6965,-4.6872 7.8171,-6.9719 10.1551,-7.435 1.8564,-0.3677 4.5025,-0.912 5.8804,-1.2095 3.9003,-0.842 13.8694,3.3769 17.7283,7.5026 4.5583,4.8734 6.2728,8.329 6.9045,13.9155 0.4583,4.0532 0.025,5.6546 -3.1631,11.6962 -3.6862,6.9849 -13.7657,18.5 -16.1936,18.5 -0.7047,0 -1.2813,0.4259 -1.2813,0.9465 0,1.1969 -9.4544,7.5098 -14.2437,9.5109 -1.9908,0.8317 -3.8818,1.9367 -4.2024,2.4554 -1.177,1.9044 -19.3402,8.1471 -29.0539,9.9858 -13.8111,2.6144 -29.1122,3.246 -39.5,1.6305 z m 69.0827,-189.6836 c 1.418,-2.64962 0.4077,-19.46532 -1.5947,-26.54172 -4.9364,-17.4456 -15.6758,-30.7075 -31.3964,-38.7708 -10.3371,-5.302 -28.4168,-7.3476 -41.0916,-4.6492 -16.3925,3.49 -31.6862,15.258 -39.7888,30.6162 -4.7212,8.9491 -7.1184,18.7854 -7.1702,29.4213 -0.065,13.35072 -6.55,12.07872 61.5788,12.07872 l 58.3098,0 1.1531,-2.1545 z M -192.42505,1183.851 c -6.13845,-3.2639 -9.65499,-7.5342 -11.84769,-14.3872 -1.67497,-5.235 -1.75769,-15.8281 -1.5,-192.07112 l 0.27274,-186.5305 2.21644,-4 c 4.54062,-8.1944 11.61542,-12.5 20.53966,-12.5 10.62661,0 16.12339,3.467 21.10407,13.3112 l 2.63983,5.2175 0,172.5357 c 0,132.86102 0.27594,172.81152 1.2,173.73562 0.9144,0.9144 21.31479,1.2 85.71657,1.2 76.314,0 84.95655,0.1614 89.05,1.6626 4.55711,1.6712 11.02811,6.8198 11.03959,8.7836 0.003,0.5796 0.74524,2.4038 1.64856,4.0538 1.09177,1.9942 1.59964,5.1402 1.51486,9.3836 -0.18017,9.0181 -3.85839,15.3904 -11.12467,19.2729 l -5.32166,2.8435 -101.21269,0 -101.21268,0 -4.72293,-2.5112 z M 96,1184.4836 c -1.925,-1.0904 -4.5125,-2.4527 -5.75,-3.0272 -1.2375,-0.5746 -2.25,-1.5359 -2.25,-2.1362 0,-0.6003 -1.2375,-2.714 -2.75,-4.697 l -2.75,-3.6056 0,-133.7706 0,-133.77052 2.25,-2.0961 c 1.2375,-1.1529 2.25,-2.7158 2.25,-3.4731 0,-2.3768 7.54193,-7.4746 12.88164,-8.7071 10.06489,-2.3233 20.12851,1.9407 25.1037,10.6364 l 3.03629,5.3069 -0.26081,133.52892 -0.26082,133.5289 -2.10099,2.3305 c -1.15554,1.2817 -2.37154,3.0987 -2.70223,4.0377 -0.33068,0.939 -2.53524,2.9473 -4.89901,4.4628 -5.80994,3.725 -16.5243,4.4383 -21.79777,1.4513 z M 332.17802,850.64698 c -2.42779,-0.4629 -6.97433,-3.295 -12.44748,-7.7534 -1.7768,-1.4474 -6.60554,-5.3636 -10.73054,-8.7026 -4.125,-3.3391 -7.725,-6.3553 -8,-6.7027 -0.275,-0.3475 -2.42877,-1.9404 -4.78616,-3.54 -2.35739,-1.5995 -7.53239,-5.6578 -11.5,-9.0185 -3.96761,-3.3606 -9.58247,-7.831 -12.47746,-9.9341 -2.89498,-2.1031 -6.38248,-5.733 -7.75,-8.0665 -6.07217,-10.3614 -0.0757,-22.8253 12.67526,-26.346 5.88155,-1.6239 13.01089,1.7325 22.89541,10.779 0.90143,0.825 4.02595,3.3 6.94339,5.5 2.91744,2.2 8.82179,6.925 13.12078,10.5 4.299,3.575 10.78523,8.75 14.41385,11.5 20.27343,15.3645 23.48805,22.1413 15.79877,33.3058 -5.18395,7.5269 -10.39277,9.9594 -18.15582,8.479 z M 98,849.67208 c -3.70064,-1.3131 -9.43835,-6.083 -12.33702,-10.2562 l -3.16298,-4.5537 -0.33061,-20 c -0.36178,-21.8854 0.0383,-24.4512 4.97459,-31.9037 3.93361,-5.9386 9.45403,-8.5963 17.85602,-8.5963 10.24773,0 16.48281,4.0149 21.43473,13.8024 1.44204,2.8502 1.62938,6.3422 1.36806,25.5 l -0.30279,22.1976 -3.5,4.8604 c -4.76717,6.6201 -10.65114,9.6635 -18.48453,9.5607 -3.30851,-0.043 -6.69047,-0.3185 -7.51547,-0.6112 z M 66.26786,581.4662 C 56.92794,577.99881 50.61611,572.03388 46.10111,562.40781 43.56456,556.99983 43.5,556.35334 43.5,536.36218 c 0,-20.0586 0.0567,-20.62101 2.63517,-26.12001 3.70676,-7.9054 8.99532,-13.32661 16.70142,-17.12031 5.90395,-2.9065 7.54458,-3.25968 15.14238,-3.25968 7.145,0 9.44093,0.4312 14.21753,2.67018 10.42472,4.8865 17.60327,14.22807 19.7886,25.75126 1.45241,7.65851 1.23683,31.50294 -0.3456,38.22601 -2.52022,10.70734 -8.5646,18.22037 -18.92642,23.52512 -7.08065,3.62495 -18.82443,4.26063 -26.44522,1.43145 z m 149.05632,0.50561 c -9.21311,-2.98914 -16.66674,-9.84497 -21.18901,-19.48962 l -2.63517,-5.62001 0,-80.5 0,-80.5 2.9171,-5.9497 c 3.44726,-7.03103 9.6388,-13.36675 16.29119,-16.67057 4.12975,-2.05098 6.24225,-2.37973 15.29171,-2.37973 9.74077,0 10.88239,0.21185 15.7884,2.92983 6.03033,3.34086 12.13727,9.54398 15.08559,15.32316 3.9891,7.81929 4.23402,13.54634 3.92367,91.74701 l -0.29766,75 -2.29875,5.68826 c -3.0657,7.58607 -10.14402,14.97512 -17.70125,18.47832 -7.07952,3.28175 -18.36507,4.15276 -25.17582,1.94305 z M 363.5,580.03378 c -10.0876,-3.95515 -17.48169,-11.63486 -20.44764,-21.2375 L 341,552.15151 341,148.49273 c 0,-401.06143 0.0129,-403.69408 1.9985,-409.14467 1.09918,-3.01723 2.67418,-5.98549 3.5,-6.59612 0.82583,-0.61064 1.5015,-1.57077 1.5015,-2.13364 0,-1.7766 8.06898,-8.39909 12.76418,-10.476 11.43058,-5.05629 26.40209,-2.44654 35.23668,6.14227 5.48152,5.32901 7.77541,9.40136 9.60641,17.05427 1.78564,7.46332 2.04989,802.82444 0.26952,811.22412 -1.62846,7.68298 -4.44225,12.61171 -10.56949,18.51387 -3.87133,3.72912 -6.46667,5.38272 -9.11041,5.80463 -2.03329,0.32449 -4.47828,1.0154 -5.43332,1.53535 -2.38848,1.30036 -13.60481,1.0515 -17.26357,-0.38303 z m 148.4333,0.0394 c -1.4116,-0.77117 -3.6997,-1.68653 -5.0847,-2.03412 -3.5104,-0.88107 -12.2215,-9.86543 -15.0175,-15.48862 l -2.3311,-4.68826 -0.3022,-79 c -0.21909,-57.2555 0.014,-80.10099 0.845,-83 1.2891,-4.494 6.5502,-12.8976 10.1076,-16.14468 6.644,-6.0645 17.439,-9.08717 26.4827,-7.41534 8.293,1.53303 13.6325,4.47602 19.2271,10.59739 9.0887,9.94458 8.5674,4.69567 8.9353,89.96263 0.3439,79.70983 0.2176,82.33521 -4.409,91.63785 -2.6368,5.30199 -8.6711,10.85332 -15.2696,14.0476 -5.7306,2.77413 -19.2674,3.66488 -23.1836,1.52553 z M 659.5,579.95762 c -7.8503,-2.49398 -15.0221,-8.92723 -19.6154,-17.59544 -2.2942,-4.32947 -2.3846,-5.29581 -2.3846,-25.5 0,-19.61071 0.1475,-21.31966 2.23,-25.83184 5.7852,-12.53523 16.5391,-19.21631 30.7528,-19.10587 10.1738,0.0791 14.6167,2.07684 23.7665,10.68681 3.0529,2.87275 3.8759,4.31579 3.5208,6.17346 -0.3233,1.69093 0.045,2.55736 1.2177,2.86399 5.3566,1.40079 5.3714,41.36117 0.019,51.80205 -2.1219,4.13929 -11.2969,12.87334 -15.827,15.06629 -3.2889,1.59214 -5.3947,1.95047 -8.7552,1.48986 -2.6379,-0.36156 -4.4248,-0.21037 -4.4248,0.37438 0,1.34468 -5.6515,1.11663 -10.5,-0.42369 z"
         id="path3073"
         inkscape:connector-curvature="0" />
      <path
         style="fill:#0f0f0f"
         d="m 253.06726,1343.4879 c -1.40383,-2.6231 -1.42386,-50.3015 -0.0233,-55.3446 1.34996,-4.8608 5.22152,-9.3658 10.2563,-11.9343 8.63156,-4.4035 20.31222,-0.4101 24.57854,8.4029 1.82082,3.7614 2.12115,6.1833 2.12115,17.1059 0,16.4059 -1.78441,20.5045 -10.95121,25.1535 -2.76547,1.4026 -4.89835,1.628 -10.73447,1.1347 -8.41077,-0.711 -8.10865,-1.0766 -8.55854,10.3562 -0.24528,6.2331 -0.36594,6.5127 -2.93852,6.8099 -1.86608,0.2156 -3.00763,-0.2971 -3.75,-1.6842 z m 25.61468,-26.6076 3.48194,-3.482 -0.33194,-12.4405 c -0.30779,-11.5354 -0.5073,-12.627 -2.74187,-15.0028 -4.86424,-5.1716 -13.90578,-4.042 -17.22107,2.1515 -1.5126,2.8258 -1.92832,20.7534 -0.59216,25.5367 0.96085,3.4398 6.11023,6.7103 10.57316,6.7153 2.49484,0 4.23884,-0.8851 6.83194,-3.4782 z m -283.62225,19.5934 c -0.78673,-1.47 -0.46388,-2.6333 1.45691,-5.25 3.31818,-4.5202 5.4834,-9.3008 5.4834,-12.1069 0,-2.7651 2.5998,-6.7546 4.40172,-6.7546 0.70857,0 2.07656,0.871 3.03997,1.9356 1.52364,1.6836 1.60889,2.6013 0.65483,7.0499 -2.66063,12.4061 -11.65195,21.4507 -15.03683,15.126 z m -322.63741,-9.5299 c -4.89661,-2.1322 -10.5799,-7.7015 -12.83907,-12.5816 -1.90363,-4.1121 -2.11123,-6.6702 -2.4083,-29.6754 -0.35608,-27.5749 -0.0224,-29.6745 4.63051,-29.1345 3.67309,0.4262 4.06672,3.3675 4.13695,30.912 0.0556,21.805 0.13782,22.7211 2.33143,25.9762 3.49267,5.1828 8.23847,7.9217 13.7262,7.9217 5.48773,0 10.23353,-2.7389 13.7262,-7.9217 2.21542,-3.2874 2.2738,-4.0201 2.2738,-28.5351 0,-27.1837 0.33281,-29.0562 5.04568,-28.3882 2.11488,0.2998 2.54382,1.0654 3.27499,5.845 0.46275,3.025 0.64877,15.2282 0.41338,27.1181 -0.39307,19.8551 -0.61074,21.9957 -2.66892,26.2474 -2.69642,5.57 -8.63353,10.889 -13.92357,12.4739 -5.13061,1.5372 -13.88962,1.4097 -17.71928,-0.2578 z m 106.07772,0.011 c -1.65,-0.7312 -4.26032,-2.5133 -5.80071,-3.9601 -4.67596,-4.3918 -5.69929,-8.3032 -5.69929,-21.7842 0,-14.4034 1.68051,-19.2845 8.10285,-23.5346 13.45295,-8.9027 29.86804,1.117 29.89157,18.2457 0.01,7.0182 -0.72321,7.3698 -15.99442,7.673 l -13.5,0.2681 -0.30678,3.6899 c -0.86501,10.4041 10.26858,16.379 19.21164,10.3101 2.02618,-1.375 4.24897,-2.5 4.93955,-2.5 1.75226,0 3.65559,2.0894 3.65559,4.0129 0,2.0804 -4.69755,6.5567 -8.3151,7.9235 -3.85095,1.455 -12.5423,1.2701 -16.1849,-0.3443 z m 17.33911,-34.4913 c 1.17846,-8.3378 -11.57939,-13.2913 -17.60505,-6.8355 -2.3384,2.5053 -3.77272,7.0541 -2.74741,8.7131 0.43326,0.701 4.13721,0.9899 10.34414,0.8068 9.35062,-0.2758 9.68038,-0.3643 10.00832,-2.6844 z m 56.33978,34.6148 C -149.60329,1324.9303 -166,1281.397 -166,1278.8127 c 0,-1.7575 0.69851,-2.5877 2.57322,-3.0582 1.41526,-0.3552 3.01574,-0.2033 3.55661,0.3375 0.54088,0.5409 3.65614,7.8862 6.92281,16.3228 5.80321,14.9877 7.29969,17.9284 8.50837,16.7197 0.32689,-0.3269 3.2402,-7.4276 6.47403,-15.7795 3.23382,-8.3518 6.42198,-15.8386 7.08481,-16.6372 0.66283,-0.7987 2.09856,-1.3179 3.19052,-1.1539 4.54744,0.6832 4.17462,2.6321 -5.21772,27.2748 -5.01439,13.1563 -9.67408,24.2743 -10.35486,24.7067 -1.80742,1.148 -3.34933,0.9898 -4.5589,-0.4676 z m 57.97403,-2.1942 c -1.67985,-1.9133 -3.31925,-4.9508 -3.64312,-6.75 -0.32387,-1.7993 -0.45856,-16.5464 -0.29932,-32.7714 l 0.28952,-29.5 2.44397,-0.345 c 4.79227,-0.6764 5.05603,0.9722 5.05603,31.6019 0,28.9828 0.16985,30.413 4.07569,34.3188 2.21106,2.211 2.43868,4.0099 0.72431,5.7243 -2.17207,2.1721 -5.5121,1.2919 -8.64708,-2.2786 z m 24.98887,1.8791 c -1.29702,-0.916 -3.19964,-3.5184 -4.22804,-5.783 -1.68955,-3.7205 -1.87194,-6.9666 -1.89179,-33.6675 -0.0161,-21.6754 0.29782,-29.8698 1.17804,-30.75 1.02235,-1.0223 5.38818,-1.7135 6.00048,-0.95 0.11026,0.1375 0.44776,14.0588 0.75,30.9363 l 0.54952,30.6863 2.83369,2.9558 c 5.27488,5.5021 0.9839,10.9338 -5.1919,6.5721 z m 27.06193,-0.5287 c -9.26294,-4.585 -12.44116,-13.9875 -10.56804,-31.2644 0.85941,-7.9269 1.48582,-10.0779 3.82981,-13.151 5.08449,-6.6661 14.50261,-9.1679 22.28003,-5.9183 4.7503,1.9848 7.02196,4.0893 9.36089,8.6721 2.27597,4.4593 2.65194,15.9155 0.57879,17.6361 -0.7568,0.6281 -6.80449,1.2105 -14.25,1.3724 l -12.9352,0.2808 -0.30657,4.7934 c -0.27658,4.3247 0.0315,5.1315 3.15,8.25 4.45467,4.4547 10.42107,4.8192 15.65657,0.9566 4.12228,-3.0413 6.56937,-3.1732 8.03589,-0.4329 2.55142,4.7673 -6.13918,10.8704 -15.53589,10.9101 -3.12269,0.013 -6.61309,-0.7772 -9.29628,-2.1054 z m 18.60485,-34.0405 c 0.47272,-4.0882 -4.2577,-8.8139 -9.53065,-9.521 -3.84459,-0.5155 -4.53749,-0.2507 -7.75,2.9618 -3.30824,3.3082 -4.56658,7.3559 -2.82746,9.095 0.38525,0.3853 4.99775,0.5728 10.25,0.4167 9.52144,-0.283 9.55045,-0.2917 9.85811,-2.9525 z m 71.93898,34.0994 c -2.06385,-1.0896 -4.98885,-3.848 -6.5,-6.13 l -2.74755,-4.1489 0,-19.4647 c 0,-17.4498 0.18115,-19.5792 1.75,-20.5708 1.27464,-0.8056 2.22536,-0.807 3.5,0 1.53395,0.9651 1.81173,3.4132 2.25,19.8293 l 0.5,18.7282 3.26578,2.9156 c 5.32207,4.7514 13.03247,3.635 16.47648,-2.3857 0.82111,-1.4354 1.43132,-8.4107 1.75774,-20.0926 0.43647,-15.6205 0.72234,-18.0338 2.25,-18.9949 1.27459,-0.8019 2.22541,-0.8005 3.5,0.01 1.56586,0.9898 1.75,3.0937 1.75,19.9949 0,22.0606 -0.74443,24.6852 -8.37372,29.5236 -5.61446,3.5606 -13.52605,3.8854 -19.37873,0.7958 z M 173.5,1326.9617 c -3.9539,-1.7426 -8.449,-6.3163 -10.14,-10.3174 -0.89684,-2.122 -1.36,-7.3782 -1.36,-15.4343 0,-10.4051 0.31449,-12.866 2.12115,-16.5981 4.26632,-8.813 15.94698,-12.8064 24.57854,-8.4029 7.43488,3.793 11.28209,10.5073 11.29473,19.7121 0.01,7.0182 -0.72321,7.3698 -15.99442,7.673 l -13.5,0.2681 -0.30678,3.6899 c -0.86501,10.4041 10.26858,16.379 19.21164,10.3101 2.02618,-1.375 4.24897,-2.5 4.93955,-2.5 1.75226,0 3.65559,2.0894 3.65559,4.0129 0,2.0804 -4.69755,6.5567 -8.3151,7.9235 -3.84345,1.4521 -12.53621,1.2712 -16.1849,-0.3369 z m 17.5,-34.9631 c 0,-3.5815 -3.46499,-8.0144 -7.18799,-9.1961 -3.13503,-0.995 -8.29991,0.3844 -10.57795,2.825 -2.31802,2.4835 -3.77524,7.05 -2.76919,8.6779 0.38799,0.6277 4.6891,1.0568 10.59415,1.0568 l 9.94098,0 0,-3.3636 z m 24.33068,34.4267 c -6.16805,-2.8006 -8.32283,-7.9266 -4.24859,-10.107 1.71599,-0.9184 2.73647,-0.6608 5.80375,1.4648 6.94297,4.8115 17.13617,2.2818 17.09885,-4.2435 -0.0237,-4.1363 -1.07482,-5.0866 -11.1166,-10.0499 C 212.35455,1298.2933 209,1294.6341 209,1288.3622 c 0,-7.3717 7.23078,-13.9951 15.28212,-13.9984 9.81984,0 19.12089,8.1954 14.51788,12.7984 -1.81589,1.8159 -3.1702,1.4819 -7.3,-1.8 -4.66997,-3.7112 -8.69731,-3.8936 -12.04545,-0.5455 -1.35,1.35 -2.45455,2.8644 -2.45455,3.3652 0,2.4544 4.6538,6.2634 10.206,8.3533 3.66017,1.3778 7.93849,3.9908 10.48797,6.4056 4.04523,3.8315 4.3058,4.4069 4.30229,9.5 -0.003,3.6712 -0.65487,6.4894 -2.02066,8.7295 -4.02389,6.6 -16.03965,9.1621 -24.64492,5.255 z m 157.98314,-0.013 c -5.32895,-3.2496 -5.76975,-4.9636 -6.31382,-24.5501 l -0.5,-18 -4.39842,-0.5 c -7.73126,-0.8789 -8.39603,-7.1578 -0.82642,-7.8058 4.4984,-0.3851 5.50799,-1.6182 5.90609,-7.2138 0.28285,-3.9758 0.60997,-4.5143 2.90435,-4.781 3.39559,-0.3947 4.70724,1.3609 5.09565,6.8202 l 0.31875,4.4804 6.5,0.2558 c 9.46797,0.3726 11,0.8796 11,3.6408 0,3.5742 -1.89274,4.4797 -10.04468,4.8054 l -7.45532,0.298 -0.27546,16.3931 c -0.23864,14.2021 -0.0509,16.6413 1.40499,18.25 2.08309,2.3018 6.21341,2.3763 10.78851,0.1946 4.08544,-1.9482 6.58196,-0.71 6.58196,3.2644 0,5.452 -14.07567,8.4784 -20.68618,4.4477 z m -654.22954,-0.4483 c -0.92082,-1.1095 -1.15866,-6.2597 -0.91441,-19.8005 0.37104,-20.5688 0.87082,-22.2929 8.17295,-28.195 3.44735,-2.7864 4.53545,-3.106 10.57303,-3.106 8.3954,0 13.72657,3.0642 16.963,9.7497 1.91525,3.9564 2.12115,6.0904 2.12115,21.9842 0,9.6814 -0.27314,18.3143 -0.60699,19.1843 -0.35251,0.9183 -1.77501,1.5815 -3.39301,1.5815 -1.618,0 -3.0405,-0.6632 -3.39301,-1.5818 -0.33385,-0.87 -0.60699,-8.9923 -0.60699,-18.0496 0,-18.2355 -0.72713,-21.1419 -5.96727,-23.8517 -3.76421,-1.9465 -6.54389,-1.9187 -9.96064,0.1 -5.10544,3.0158 -5.48705,4.5543 -6.04839,24.3835 l -0.5237,18.5 -2.5856,0.3006 c -1.42207,0.1653 -3.14563,-0.3743 -3.83012,-1.1991 z m 166.40263,-0.8515 c -0.30315,-1.2375 -0.42422,-12.5513 -0.26905,-25.1418 0.25303,-20.5296 0.46271,-23.0056 2.03214,-23.9949 1.27573,-0.8041 2.22427,-0.8041 3.5,10e-5 1.5737,0.992 1.77704,3.4975 2.01839,24.8703 0.1885,16.6917 -0.0712,24.1763 -0.87244,25.1417 -1.86119,2.2426 -5.77621,1.7078 -6.40904,-0.8754 z m 207.17976,1.5833 C 92.3,1326.3289 92,1317.5359 92,1307.1557 c 0,-16.5468 0.23341,-19.3305 1.89359,-22.5833 2.33893,-4.5828 4.61059,-6.6873 9.36089,-8.6721 11.30542,-4.7237 23.39267,2.0553 25.74069,14.4365 1.10843,5.8447 1.20317,23.7057 0.16722,31.5254 -0.57196,4.3174 -0.99605,5.0471 -3.10636,5.345 C 121.5708,1327.8403 121,1325.5106 121,1306.5711 l 0,-17.4089 -3.52792,-3.5279 c -3.21251,-3.2125 -3.90541,-3.4773 -7.75,-2.9618 -3.01672,0.4046 -5.00718,1.4448 -6.97208,3.6437 l -2.75,3.0776 0,17.0499 c 0,9.8406 -0.43771,17.8679 -1.03518,18.9842 -0.99542,1.86 -4.9166,2.6492 -6.29815,1.2676 z m 209.39442,-0.7597 c -0.84493,-1.0181 -1.09467,-6.8147 -0.87244,-20.25 0.27759,-16.7828 0.53776,-19.2573 2.39976,-22.8236 4.16862,-7.9843 14.70861,-10.8404 22.91159,-6.2085 7.69371,4.3444 4.91624,11.8234 -2.84585,7.6631 -4.11636,-2.2062 -6.85865,-2.4507 -9.80455,-0.8741 -3.91486,2.0952 -4.8496,6.78 -4.8496,24.3056 0,9.0477 -0.27314,17.1621 -0.60699,18.0321 -0.75601,1.9701 -4.74458,2.068 -6.33192,0.1554 z m 38.60558,0.7597 C 340.3,1326.3289 340,1314.8624 340,1301.2146 l 0,-24.8143 2.65559,-0.6665 c 4.93977,-1.2398 5.34441,0.6822 5.34441,25.3853 0,13.511 -0.41008,23.1408 -1.03518,24.3088 -0.99542,1.86 -4.9166,2.6492 -6.29815,1.2676 z m 63,0 c -1.15686,-1.1568 -0.72147,-11.8785 0.53333,-13.1333 4.4514,-4.4514 9.23167,5.3879 5.76482,11.8657 -0.99542,1.86 -4.9166,2.6492 -6.29815,1.2676 z m -517.60533,-59.7594 c -1.74209,-2.0991 -0.92448,-9.6426 1.18866,-10.9669 2.86365,-1.7947 5.20172,0.4415 5.56111,5.3187 0.33579,4.557 -1.02036,7.0743 -3.81111,7.0743 -0.96531,0 -2.28771,-0.6417 -2.93866,-1.4261 z m 455.00314,0 c -0.66053,-0.7959 -1.04477,-3.5485 -0.87244,-6.25 0.27147,-4.2556 0.59757,-4.8686 2.75193,-5.1727 3.05979,-0.4319 5.05603,2.1205 5.05603,6.4647 0,5.1449 -4.25558,8.1871 -6.93552,4.958 z M 66.26786,581.4662 C 56.92794,577.99881 50.61611,572.03388 46.10111,562.40781 43.56456,556.99983 43.5,556.35334 43.5,536.36218 c 0,-20.0586 0.0567,-20.62101 2.63517,-26.12001 3.70676,-7.9054 8.99532,-13.32661 16.70142,-17.12031 5.90395,-2.9065 7.54458,-3.25968 15.14238,-3.25968 7.145,0 9.44093,0.4312 14.21753,2.67018 10.42472,4.8865 17.60327,14.22807 19.7886,25.75126 1.45241,7.65851 1.23683,31.50294 -0.3456,38.22601 -2.52022,10.70734 -8.5646,18.22037 -18.92642,23.52512 -7.08065,3.62495 -18.82443,4.26063 -26.44522,1.43145 z m 149.05632,0.50561 c -9.21311,-2.98914 -16.66674,-9.84497 -21.18901,-19.48962 l -2.63517,-5.62001 0,-80.5 0,-80.5 2.9171,-5.9497 c 3.44726,-7.03103 9.6388,-13.36675 16.29119,-16.67057 4.12975,-2.05098 6.24225,-2.37973 15.29171,-2.37973 9.74077,0 10.88239,0.21185 15.7884,2.92983 6.03033,3.34086 12.13727,9.54398 15.08559,15.32316 3.9891,7.81929 4.23402,13.54634 3.92367,91.74701 l -0.29766,75 -2.29875,5.68826 c -3.0657,7.58607 -10.14402,14.97512 -17.70125,18.47832 -7.07952,3.28175 -18.36507,4.15276 -25.17582,1.94305 z"
         id="path3071"
         inkscape:connector-curvature="0" />
    </g>
  </g>
</svg>
